
<svg width="60" height="61" viewBox="0 0 60 61" fill="none" xmlns="http://www.w3.org/2000/svg">
<g clip-path="url(#clip0_61_429)">
<g style="mix-blend-mode:screen">
<path d="M53.6256 10.8125L41.8131 4.25V17.375L53.6256 10.8125Z" fill="url(#paint0_linear_61_429)"/>
<path d="M41.8125 10.8125L30 4.25V17.375L41.8125 10.8125Z" fill="url(#paint1_linear_61_429)"/>
<path d="M30.0002 10.8125L18.1877 4.25V17.375L30.0002 10.8125Z" fill="url(#paint2_linear_61_429)"/>
<path d="M18.1878 10.8125L6.37531 4.25V17.375L18.1878 10.8125Z" fill="url(#paint3_linear_61_429)"/>
<path d="M6.37531 23.9375L18.1878 17.375V30.5L6.37531 23.9375Z" fill="url(#paint4_linear_61_429)"/>
<path d="M18.1877 23.9375L30.0002 17.375V30.5L18.1877 23.9375Z" fill="url(#paint5_linear_61_429)"/>
<path d="M30 23.9375L41.8125 17.375V30.5L30 23.9375Z" fill="url(#paint6_linear_61_429)"/>
<path d="M41.8131 23.9375L53.6256 17.375V30.5L41.8131 23.9375Z" fill="url(#paint7_linear_61_429)"/>
<path d="M53.6256 37.0625L41.8131 30.5V43.625L53.6256 37.0625Z" fill="url(#paint8_linear_61_429)"/>
<path d="M41.8125 37.0625L30 30.5V43.625L41.8125 37.0625Z" fill="url(#paint9_linear_61_429)"/>
<path d="M30.0002 37.0625L18.1877 30.5V43.625L30.0002 37.0625Z" fill="url(#paint10_linear_61_429)"/>
<path d="M18.1878 37.0625L6.37531 30.5V43.625L18.1878 37.0625Z" fill="url(#paint11_linear_61_429)"/>
<path d="M6.37531 50.1875L18.1878 43.625V56.75L6.37531 50.1875Z" fill="url(#paint12_linear_61_429)"/>
<path d="M18.1877 50.1875L30.0002 43.625V56.75L18.1877 50.1875Z" fill="url(#paint13_linear_61_429)"/>
<path d="M30 50.1875L41.8125 43.625V56.75L30 50.1875Z" fill="url(#paint14_linear_61_429)"/>
<path d="M41.8131 50.1875L53.6256 43.625V56.75L41.8131 50.1875Z" fill="url(#paint15_linear_61_429)"/>
</g>
</g>
<defs>
<linearGradient id="paint0_linear_61_429" x1="53.6256" y1="10.8125" x2="41.8131" y2="10.8125" gradientUnits="userSpaceOnUse">
<stop stop-color="white"/>
<stop offset="1" stop-color="white" stop-opacity="0"/>
</linearGradient>
<linearGradient id="paint1_linear_61_429" x1="41.8125" y1="10.8125" x2="30" y2="10.8125" gradientUnits="userSpaceOnUse">
<stop stop-color="white"/>
<stop offset="1" stop-color="white" stop-opacity="0"/>
</linearGradient>
<linearGradient id="paint2_linear_61_429" x1="30.0002" y1="10.8125" x2="18.1877" y2="10.8125" gradientUnits="userSpaceOnUse">
<stop stop-color="white"/>
<stop offset="1" stop-color="white" stop-opacity="0"/>
</linearGradient>
<linearGradient id="paint3_linear_61_429" x1="18.1878" y1="10.8125" x2="6.37531" y2="10.8125" gradientUnits="userSpaceOnUse">
<stop stop-color="white"/>
<stop offset="1" stop-color="white" stop-opacity="0"/>
</linearGradient>
<linearGradient id="paint4_linear_61_429" x1="6.37531" y1="23.9375" x2="18.1878" y2="23.9375" gradientUnits="userSpaceOnUse">
<stop stop-color="white"/>
<stop offset="1" stop-color="white" stop-opacity="0"/>
</linearGradient>
<linearGradient id="paint5_linear_61_429" x1="18.1877" y1="23.9375" x2="30.0002" y2="23.9375" gradientUnits="userSpaceOnUse">
<stop stop-color="white"/>
<stop offset="1" stop-color="white" stop-opacity="0"/>
</linearGradient>
<linearGradient id="paint6_linear_61_429" x1="30" y1="23.9375" x2="41.8125" y2="23.9375" gradientUnits="userSpaceOnUse">
<stop stop-color="white"/>
<stop offset="1" stop-color="white" stop-opacity="0"/>
</linearGradient>
<linearGradient id="paint7_linear_61_429" x1="41.8131" y1="23.9375" x2="53.6256" y2="23.9375" gradientUnits="userSpaceOnUse">
<stop stop-color="white"/>
<stop offset="1" stop-color="white" stop-opacity="0"/>
</linearGradient>
<linearGradient id="paint8_linear_61_429" x1="53.6256" y1="37.0625" x2="41.8131" y2="37.0625" gradientUnits="userSpaceOnUse">
<stop stop-color="white"/>
<stop offset="1" stop-color="white" stop-opacity="0"/>
</linearGradient>
<linearGradient id="paint9_linear_61_429" x1="41.8125" y1="37.0625" x2="30" y2="37.0625" gradientUnits="userSpaceOnUse">
<stop stop-color="white"/>
<stop offset="1" stop-color="white" stop-opacity="0"/>
</linearGradient>
<linearGradient id="paint10_linear_61_429" x1="30.0002" y1="37.0625" x2="18.1877" y2="37.0625" gradientUnits="userSpaceOnUse">
<stop stop-color="white"/>
<stop offset="1" stop-color="white" stop-opacity="0"/>
</linearGradient>
<linearGradient id="paint11_linear_61_429" x1="18.1878" y1="37.0625" x2="6.37531" y2="37.0625" gradientUnits="userSpaceOnUse">
<stop stop-color="white"/>
<stop offset="1" stop-color="white" stop-opacity="0"/>
</linearGradient>
<linearGradient id="paint12_linear_61_429" x1="6.37531" y1="50.1875" x2="18.1878" y2="50.1875" gradientUnits="userSpaceOnUse">
<stop stop-color="white"/>
<stop offset="1" stop-color="white" stop-opacity="0"/>
</linearGradient>
<linearGradient id="paint13_linear_61_429" x1="18.1877" y1="50.1875" x2="30.0002" y2="50.1875" gradientUnits="userSpaceOnUse">
<stop stop-color="white"/>
<stop offset="1" stop-color="white" stop-opacity="0"/>
</linearGradient>
<linearGradient id="paint14_linear_61_429" x1="30" y1="50.1875" x2="41.8125" y2="50.1875" gradientUnits="userSpaceOnUse">
<stop stop-color="white"/>
<stop offset="1" stop-color="white" stop-opacity="0"/>
</linearGradient>
<linearGradient id="paint15_linear_61_429" x1="41.8131" y1="50.1875" x2="53.6256" y2="50.1875" gradientUnits="userSpaceOnUse">
<stop stop-color="white"/>
<stop offset="1" stop-color="white" stop-opacity="0"/>
</linearGradient>
<clipPath id="clip0_61_429">
<rect width="60" height="60" fill="white" transform="translate(0 0.5)"/>
</clipPath>
</defs>
</svg>
