
<svg width="60" height="60" viewBox="0 0 60 60" fill="none" xmlns="http://www.w3.org/2000/svg">
<g clip-path="url(#clip0_61_534)">
<g clip-path="url(#clip1_61_534)">
<g style="mix-blend-mode:screen">
<path fill-rule="evenodd" clip-rule="evenodd" d="M39.0993 9V14.2498L43.6477 11.6248L54.2601 15.9998L52.7441 27.3748L48.1957 29.9999L52.7441 32.625L54.2601 44L43.6477 48.3748L39.0993 45.75V51L30.0028 58L20.9063 51V45.75L16.358 48.3748L5.74542 44L7.2615 32.625L11.8099 29.9999L7.2615 27.3748L5.74542 15.9998L16.358 11.6248L20.9063 14.2498V9L30.0028 2L39.0993 9ZM21.6643 9.37296L30.0028 2.95628L38.3413 9.37296V14.6873L31.5189 18.6248L30.1447 28.9345L30.0028 29.0437L29.8608 28.9345L28.4867 18.6248L21.6643 14.6873V9.37296ZM12.568 30.4374L7.96366 33.0948L6.5739 43.522L16.3021 47.5324L20.9063 44.8748V37L29.1506 30.6557L29.1743 30.4781L29.0084 30.4097L19.3902 34.3748L12.568 30.4374ZM28.0142 29.9999L19.4461 33.532L13.326 29.9999L19.4461 26.4677L28.0142 29.9999ZM29.0084 29.59L19.3902 25.625L12.568 29.5624L7.96366 26.905L6.5739 16.4779L16.3021 12.4675L20.9063 15.1248V23L29.1507 29.3443L29.1743 29.5216L29.0084 29.59ZM29.0086 31.7213L21.6643 37.3729V44.4376L27.7846 40.9052L29.0086 31.7213ZM21.6643 45.3124L28.4867 41.3748L29.8607 31.0656L30.0028 30.9563L30.1448 31.0656L31.5189 41.3748L38.3413 45.3124V50.6272L30.0028 57.0436L21.6643 50.6272V45.3124ZM32.221 19.0946L38.3413 15.5623V22.6271L30.9969 28.2787L32.221 19.0946ZM39.0993 23L30.8549 29.3443L30.8313 29.5216L30.9971 29.59L40.6153 25.625L47.4377 29.5624L52.0421 26.905L53.4317 16.4779L43.7033 12.4675L39.0993 15.1248V23ZM40.6153 34.3748L30.9971 30.4097L30.8313 30.4781L30.8549 30.6557L39.0993 37V44.8748L43.7033 47.5324L53.4317 43.522L52.0417 33.0948L47.4377 30.4374L40.6153 34.3748ZM40.5593 33.532L46.6797 29.9999L40.5593 26.4677L31.9913 29.9999L40.5593 33.532ZM30.9969 31.7213L38.3413 37.3729V44.4376L32.221 40.9052L30.9969 31.7213ZM27.7845 19.0946L29.0087 28.2787L21.6643 22.6271V15.5623L27.7845 19.0946Z" fill="url(#paint0_radial_61_534)"/>
</g>
</g>
</g>
<defs>
<radialGradient id="paint0_radial_61_534" cx="0" cy="0" r="1" gradientUnits="userSpaceOnUse" gradientTransform="translate(30.0028 30) rotate(56.4788) scale(40.4932 35.073)">
<stop stop-color="white"/>
<stop offset="1" stop-color="white" stop-opacity="0"/>
</radialGradient>
<clipPath id="clip0_61_534">
<rect width="64" height="64" fill="white" transform="translate(-2 -2)"/>
</clipPath>
<clipPath id="clip1_61_534">
<rect width="64" height="64" fill="white" transform="translate(-2 -2)"/>
</clipPath>
</defs>
</svg>
