
<svg width="739" height="669" viewBox="0 0 739 669" fill="none" xmlns="http://www.w3.org/2000/svg">
<g clip-path="url(#clip0_129_14)">
<rect width="739" height="668.222" rx="15" fill="#A33900"/>
<path opacity="0.5" fill-rule="evenodd" clip-rule="evenodd" d="M0.323353 -43.105C-0.00277477 -42.4916 7.77458e-07 -42.4902 7.77458e-07 -42.4902L0.00693966 -42.486L0.0374708 -42.4708L0.154044 -42.4097C0.925055 -42.0108 1.69993 -41.6195 2.47857 -41.2357C4.13419 -40.4183 6.62802 -39.2234 9.97812 -37.7024C16.6811 -34.6605 26.8216 -30.3182 40.5828 -25.1086C68.1065 -14.6894 110.115 -0.803505 168.082 13.081C284.018 40.8499 463.789 68.6091 719.192 68.6091V67.2213C463.891 67.2213 284.229 39.4732 168.405 11.7307C110.493 -2.13991 68.5409 -16.0091 41.074 -26.4061C27.3406 -31.6047 17.2279 -35.9358 10.5527 -38.9653C8.04735 -40.0971 5.56014 -41.2685 3.09197 -42.4791C2.32348 -42.8582 1.55878 -43.2449 0.797973 -43.6392L0.684175 -43.6975L0.656419 -43.7114L0.650868 -43.7156L0.323353 -43.105ZM0.323353 12.4051C0.023593 13.031 0.0263685 13.0324 0.0263685 13.0324L0.0346952 13.0365L0.0638385 13.0504L0.180412 13.1059L0.645317 13.3224C1.05749 13.5125 1.67644 13.7943 2.50494 14.162C4.16056 14.8975 6.653 15.973 10.0031 17.34C16.7061 20.078 26.8452 23.9873 40.6064 28.6751C68.126 38.0508 110.134 50.5475 168.099 63.0428C284.029 88.0334 463.796 106.078 719.192 106.078V104.691C463.887 104.691 284.218 86.654 168.391 61.6856C110.477 49.2014 68.5229 36.7199 41.0532 27.3609C27.3184 22.6814 17.2057 18.7846 10.5277 16.0563C8.02532 15.0384 5.53816 13.9836 3.06699 12.8922C2.29867 12.5519 1.53351 12.2045 0.771605 11.85L0.660583 11.7973L0.632827 11.7834L0.625888 11.7806L0.323353 12.4051ZM0.317802 377.384C0.316414 377.384 0.315026 377.384 0.315026 376.69C0.315026 375.996 0.316414 375.996 0.317802 375.996H719.183V377.384H0.317802ZM0.315026 425.261C0.315026 425.955 0.316414 425.955 0.317802 425.955H719.183V424.567H0.317802C0.316414 424.567 0.315026 424.567 0.315026 425.261ZM0.315026 471.057C0.315026 471.751 0.316414 471.751 0.317802 471.751H719.183V470.363H0.317802C0.316414 470.363 0.315026 470.363 0.315026 471.057ZM0.115186 74.1282C0.112411 74.1282 0.112411 74.1282 0.323353 73.4676C0.534295 72.8056 0.535683 72.807 0.53707 72.807L0.544009 72.8084L0.571765 72.8181L0.684175 72.8528L1.14075 72.9944C1.54737 73.1207 2.16077 73.3066 2.98233 73.5495C4.62685 74.0366 7.10819 74.7499 10.4486 75.6602C17.1279 77.4782 27.2448 80.0789 40.9824 83.1985C68.4604 89.4392 110.421 97.763 168.343 106.087C284.188 122.734 463.871 139.386 719.192 139.386V140.774C463.81 140.774 284.061 124.118 168.146 107.461C110.188 99.1313 68.1898 90.8006 40.6757 84.5516C26.9187 81.4277 16.7824 78.8229 10.0836 76.9994C7.5781 76.3198 5.07996 75.6134 2.58959 74.8803C1.76248 74.6361 1.14353 74.4487 0.732747 74.3211L0.267842 74.1767L0.152656 74.1407L0.122125 74.1309L0.115186 74.1282ZM0.321965 128.976C0.177636 129.655 0.177636 129.655 0.180412 129.655L0.216494 129.663L0.333067 129.687L0.795197 129.783C1.20598 129.867 1.82354 129.992 2.65065 130.156C4.30211 130.482 6.79178 130.959 10.1405 131.567C16.8365 132.783 26.9701 134.518 40.7243 136.601C68.2328 140.767 110.224 146.319 168.176 151.871C284.081 162.975 463.82 174.078 719.19 174.078V172.69C463.859 172.69 284.164 161.588 168.31 150.489C110.381 144.94 68.4132 139.39 40.9311 135.228C27.1907 133.148 17.071 131.415 10.3875 130.202C7.04713 129.595 4.5644 129.119 2.9185 128.795C2.09554 128.632 1.48215 128.507 1.07414 128.424L0.616174 128.33L0.503764 128.305L0.469069 128.298C0.467682 128.298 0.466294 128.298 0.321965 128.976ZM0.238698 181.011L0.319189 180.323C0.402456 179.633 0.402456 179.633 0.405232 179.633L0.553724 179.651L1.01169 179.706L2.85743 179.914C4.50611 180.096 6.99023 180.365 10.332 180.706C17.0183 181.389 27.1408 182.363 40.8839 183.534C68.3716 185.876 110.345 188.998 168.278 192.119C284.143 198.364 463.849 204.609 719.188 204.609V205.997C463.826 205.997 284.096 199.75 168.203 193.505C110.257 190.383 68.2689 187.259 40.7659 184.917C30.5669 184.058 20.3752 183.114 10.1918 182.086C7.0768 181.768 3.96351 181.434 0.852096 181.084L0.391354 181.029L0.238698 181.011ZM0.319189 230.281L0.260903 230.973L0.413558 230.986L0.8743 231.025L2.72559 231.176C4.37705 231.308 6.86395 231.502 10.2099 231.749C16.9017 232.242 27.0311 232.947 40.7826 233.793C68.2828 235.485 110.269 237.74 168.212 239.995C284.102 244.505 463.828 249.015 719.188 249.015V247.628C463.845 247.628 284.136 243.118 168.267 238.609C110.332 236.354 68.3577 234.099 40.8673 232.408C27.1227 231.562 16.9975 230.858 10.3126 230.364C7.20391 230.136 4.09619 229.895 0.989486 229.641L0.531519 229.604L0.380252 229.59L0.319189 230.281ZM0.305312 282.324C0.303924 282.324 0.302536 282.324 0.320577 281.63L0.341394 280.937L0.952016 280.953L2.80053 280.999C4.44921 281.041 6.93472 281.099 10.2793 281.175C16.9684 281.328 27.0936 281.544 40.8395 281.804C68.3341 282.324 110.312 283.018 168.25 283.712C284.127 285.1 463.841 286.488 719.189 286.488V287.875C463.837 287.875 284.117 286.488 168.233 285.1C110.294 284.406 68.3105 283.712 40.8131 283.192C27.0658 282.932 16.9378 282.714 10.2473 282.563C6.9028 282.487 4.41591 282.427 2.76723 282.387L0.915934 282.34L0.305312 282.324ZM0.328904 331.589C0.326128 331.589 0.326128 331.589 0.326128 330.896C0.326128 330.202 0.326128 330.202 0.328904 330.202H719.192V331.589H0.327516H0.328904ZM0.0180419 791.692C0.0152663 791.693 0.0152663 791.693 0.315026 792.319C0.614786 792.945 0.616174 792.945 0.617562 792.943L0.623113 792.941L0.650868 792.928L0.763278 792.874L1.21847 792.663C1.62509 792.474 2.2371 792.195 3.05866 791.832C4.70179 791.102 7.18036 790.032 10.5193 788.668C17.1959 785.941 27.3101 782.043 41.0449 777.365C68.5146 768.006 110.468 755.523 168.382 743.039C284.21 718.07 463.878 693.095 719.183 693.095V691.707C463.787 691.707 284.021 716.691 168.09 741.681C110.124 754.177 68.1176 766.675 40.5966 776.05C26.8368 780.738 16.6963 784.646 9.99477 787.384C6.64329 788.753 4.15223 789.828 2.49661 790.563C1.87457 790.838 1.25468 791.118 0.63699 791.403C0.430212 791.497 0.276168 791.571 0.172085 791.62L0.0555119 791.675L0.0249808 791.689L0.0180419 791.692ZM0.313638 731.258C0.101309 730.597 0.102696 730.597 0.105472 730.596L0.112411 730.593L0.141554 730.585L0.258127 730.547L0.721645 730.403C1.13381 730.277 1.75138 730.089 2.57849 729.844C4.23272 729.355 6.72378 728.638 10.0725 727.726C16.7727 725.903 26.9076 723.298 40.6646 720.173C68.1787 713.924 110.178 705.594 168.135 697.265C284.05 680.606 463.801 663.952 719.182 663.952V665.34C463.86 665.34 284.176 681.991 168.333 698.639C110.412 706.963 68.4493 715.286 40.9727 721.527C27.2337 724.647 17.1168 727.246 10.4375 729.065C7.09709 729.974 4.61713 730.689 2.97123 731.175C2.2039 731.403 1.43784 731.635 0.673073 731.871L0.56205 731.907L0.534295 731.916L0.525968 731.918L0.313638 731.258ZM0.16931 675.069C0.167922 675.071 0.166534 675.071 0.312251 675.749C0.456579 676.428 0.456579 676.428 0.457967 676.426L0.492662 676.419L0.606459 676.396L1.06443 676.302C1.47104 676.217 2.08583 676.093 2.90878 675.931C4.55468 675.606 7.03603 675.13 10.3778 674.524C17.0599 673.311 27.1796 671.576 40.9214 669.496C68.4035 665.335 110.371 659.786 168.298 654.236C284.154 643.136 463.849 632.035 719.181 632.035V630.647C463.809 630.647 284.07 641.749 168.167 652.854C110.214 658.406 68.2217 663.959 40.7132 668.123C26.9603 670.206 16.8268 671.943 10.1294 673.158C6.78207 673.766 4.29239 674.243 2.63955 674.57C1.86617 674.721 1.09363 674.877 0.321965 675.037L0.20678 675.062L0.16931 675.069ZM0.315026 624.402C0.23176 623.714 0.23176 623.714 0.234535 623.714L0.387191 623.696L0.847932 623.642C1.25871 623.595 1.87489 623.524 2.70061 623.432C4.35207 623.249 6.84035 622.981 10.1863 622.639C16.8795 621.956 27.0103 620.979 40.7618 619.808C68.2647 617.466 110.252 614.343 168.199 611.22C284.092 604.974 463.821 598.729 719.183 598.729V600.117C463.844 600.117 284.139 606.362 168.274 612.605C110.341 615.728 68.3674 618.85 40.8797 621.191C30.6881 622.049 20.5038 622.992 10.3278 624.019C7.21926 624.336 4.11244 624.669 1.00753 625.02L0.54956 625.074L0.399681 625.091C0.398293 625.092 0.396905 625.092 0.315026 624.402ZM0.25674 573.752C0.255352 573.752 0.253964 573.752 0.313638 574.443C0.373313 575.136 0.374701 575.134 0.376088 575.134L0.525968 575.122L0.983935 575.083C1.39333 575.05 2.00811 574.998 2.83107 574.933C4.47974 574.801 6.96387 574.607 10.307 574.36C16.9933 573.867 27.1172 573.162 40.8617 572.317C68.3522 570.627 110.327 568.372 168.262 566.117C284.131 561.607 463.839 557.096 719.182 557.096V555.709C463.823 555.709 284.097 560.219 168.208 564.73C110.263 566.986 68.2772 569.241 40.777 570.932C27.027 571.779 16.8976 572.484 10.2043 572.976C7.09157 573.206 3.97969 573.448 0.868749 573.701C0.715096 573.713 0.561513 573.726 0.408007 573.74L0.255352 573.752H0.25674ZM0.309475 523.098L0.292822 522.404L0.903444 522.387L2.75474 522.342C4.4048 522.3 6.89031 522.242 10.2349 522.165C16.9267 522.013 27.0547 521.796 40.802 521.537C68.2994 521.016 110.281 520.322 168.222 519.628C284.104 518.241 463.824 516.853 719.178 516.853V518.241C463.83 518.241 284.115 519.628 168.239 521.016C110.301 521.71 68.3216 522.403 40.827 522.923C28.1467 523.162 15.4671 523.43 2.78804 523.728L0.939526 523.775L0.328904 523.79L0.309475 523.098Z" fill="url(#paint0_linear_129_14)"/>
</g>
<defs>
<linearGradient id="paint0_linear_129_14" x1="13.1742" y1="220.651" x2="718.857" y2="410.78" gradientUnits="userSpaceOnUse">
<stop stop-color="#203535"/>
<stop offset="0.12" stop-color="#0B373C"/>
<stop offset="0.289" stop-color="#ECD947"/>
<stop offset="0.453" stop-color="#ECD947"/>
<stop offset="0.64" stop-color="#3BFE7B"/>
<stop offset="0.827"/>
</linearGradient>
<clipPath id="clip0_129_14">
<rect width="739" height="668.222" rx="15" fill="white"/>
</clipPath>
</defs>
</svg>
