
<svg width="725" height="237" viewBox="0 0 725 237" fill="none" xmlns="http://www.w3.org/2000/svg">
<path d="M111.139 121.941C111.569 122.169 111.863 122.459 112.207 122.804C112.281 122.877 112.356 122.95 112.432 123.026C112.682 123.274 112.93 123.523 113.178 123.773C113.358 123.952 113.538 124.131 113.718 124.31C114.213 124.804 114.708 125.298 115.202 125.794C115.734 126.327 116.268 126.859 116.802 127.391C117.848 128.434 118.892 129.479 119.937 130.524C120.785 131.373 121.635 132.222 122.484 133.071C122.605 133.192 122.726 133.312 122.85 133.437C123.096 133.682 123.341 133.927 123.586 134.172C125.889 136.472 128.19 138.774 130.491 141.077C132.596 143.184 134.703 145.288 136.81 147.392C138.974 149.552 141.136 151.713 143.297 153.874C144.51 155.089 145.724 156.302 146.939 157.515C147.974 158.547 149.008 159.581 150.04 160.616C150.567 161.144 151.094 161.671 151.623 162.197C152.107 162.679 152.589 163.163 153.071 163.647C153.245 163.822 153.42 163.996 153.595 164.17C155.543 166.101 155.543 166.101 155.78 167.499C155.78 167.662 155.779 167.826 155.779 167.994C155.783 168.158 155.786 168.321 155.79 168.489C155.512 169.966 154.251 170.992 153.228 172.007C153.056 172.18 152.883 172.354 152.71 172.527C152.237 173.002 151.763 173.476 151.288 173.949C150.776 174.46 150.265 174.973 149.754 175.485C148.753 176.488 147.751 177.49 146.748 178.491C145.934 179.304 145.12 180.118 144.306 180.933C144.19 181.049 144.074 181.165 143.955 181.284C143.719 181.52 143.484 181.755 143.248 181.991C141.042 184.199 138.834 186.405 136.626 188.611C134.73 190.504 132.837 192.398 130.944 194.293C128.745 196.494 126.546 198.695 124.345 200.894C124.111 201.128 123.876 201.363 123.641 201.597C123.526 201.712 123.411 201.828 123.292 201.947C122.478 202.76 121.665 203.573 120.852 204.387C119.862 205.379 118.871 206.369 117.879 207.359C117.373 207.864 116.867 208.369 116.362 208.876C115.9 209.339 115.437 209.802 114.973 210.263C114.805 210.43 114.638 210.598 114.471 210.766C114.244 210.994 114.016 211.221 113.787 211.447C113.661 211.574 113.534 211.7 113.404 211.83C112.674 212.449 112.03 212.694 111.078 212.695C110.912 212.698 110.746 212.701 110.574 212.704C109 212.476 108.037 211.341 106.97 210.266C106.789 210.085 106.607 209.905 106.425 209.724C105.927 209.229 105.431 208.732 104.935 208.235C104.4 207.699 103.863 207.164 103.326 206.629C102.275 205.582 101.226 204.533 100.178 203.483C99.3258 202.63 98.4734 201.778 97.6207 200.926C97.4993 200.805 97.378 200.684 97.2529 200.559C97.0064 200.313 96.7599 200.066 96.5134 199.82C94.2025 197.512 91.8937 195.202 89.5854 192.891C87.4716 190.775 85.3555 188.661 83.2383 186.548C81.0653 184.38 78.8937 182.21 76.7238 180.038C76.4786 179.793 76.2335 179.548 75.9883 179.303C75.8677 179.182 75.747 179.061 75.6227 178.937C74.7709 178.085 73.9182 177.233 73.0651 176.383C72.0266 175.347 70.9895 174.31 69.9541 173.271C69.4255 172.74 68.8962 172.211 68.3652 171.683C67.8799 171.2 67.3963 170.715 66.9142 170.229C66.7389 170.053 66.5628 169.878 66.3861 169.703C66.1472 169.467 65.9108 169.228 65.6749 168.989C65.5425 168.856 65.4102 168.724 65.2739 168.587C65.0141 168.229 65.0141 168.229 65.0056 167.918C65.2394 167.471 65.5454 167.168 65.9015 166.811C65.9786 166.733 66.0557 166.656 66.1351 166.575C66.3952 166.313 66.657 166.053 66.9188 165.792C67.1069 165.603 67.2949 165.414 67.4828 165.225C68.0006 164.705 68.52 164.186 69.0396 163.667C69.5992 163.108 70.1575 162.548 70.7159 161.987C71.8106 160.889 72.9065 159.793 74.003 158.696C74.8937 157.806 75.7841 156.915 76.6741 156.024C76.9301 155.767 77.1862 155.511 77.4422 155.255C77.5696 155.127 77.697 154.999 77.8283 154.868C80.2397 152.454 82.6526 150.041 85.0661 147.629C87.2763 145.419 89.4845 143.208 91.6918 140.995C93.9559 138.726 96.2215 136.458 98.4886 134.191C99.7623 132.918 101.035 131.644 102.307 130.369C103.389 129.283 104.473 128.199 105.558 127.116C106.113 126.564 106.666 126.01 107.218 125.455C107.723 124.948 108.229 124.442 108.737 123.938C108.921 123.754 109.104 123.57 109.287 123.385C109.534 123.136 109.783 122.888 110.033 122.642C110.241 122.434 110.241 122.434 110.453 122.222C110.823 121.95 110.823 121.95 111.139 121.941Z" fill="#FFF6CC"/>
<path d="M111.058 12.5182C111.222 12.5148 111.385 12.5114 111.554 12.5078C113.03 12.7855 114.056 14.0469 115.071 15.0691C115.245 15.2419 115.418 15.4147 115.592 15.5874C116.067 16.0603 116.54 16.5347 117.013 17.0094C117.525 17.5217 118.037 18.0327 118.55 18.5439C119.553 19.5446 120.554 20.5467 121.555 21.5492C122.369 22.3638 123.183 23.178 123.997 23.9918C124.113 24.1077 124.229 24.2236 124.349 24.3429C124.584 24.5783 124.82 24.8137 125.055 25.0491C127.263 27.2556 129.469 29.4635 131.675 31.6719C133.568 33.5671 135.463 35.461 137.358 37.3539C139.559 39.5525 141.759 41.7518 143.958 43.9523C144.193 44.1869 144.427 44.4214 144.661 44.656C144.777 44.7714 144.892 44.8869 145.011 45.0058C145.824 45.8193 146.638 46.6323 147.452 47.4451C148.443 48.4353 149.434 49.4263 150.423 50.4184C150.928 50.9246 151.434 51.4304 151.94 51.9353C152.404 52.3973 152.866 52.8604 153.327 53.3244C153.495 53.4921 153.662 53.6595 153.83 53.8264C154.058 54.0532 154.285 54.2815 154.512 54.5101C154.638 54.6366 154.765 54.7631 154.895 54.8934C155.513 55.6236 155.758 56.2678 155.76 57.2193C155.763 57.3856 155.766 57.5518 155.769 57.7231C155.54 59.2975 154.406 60.2607 153.331 61.3274C153.15 61.509 152.969 61.6907 152.789 61.8726C152.294 62.3705 151.797 62.8665 151.299 63.3621C150.763 63.8975 150.228 64.4346 149.693 64.9716C148.646 66.0224 147.597 67.0715 146.547 68.12C145.694 68.9717 144.842 69.8241 143.99 70.6768C143.869 70.7982 143.748 70.9195 143.623 71.0445C143.377 71.2911 143.131 71.5376 142.884 71.7841C140.576 74.095 138.266 76.4038 135.955 78.7121C133.839 80.8259 131.725 82.942 129.612 85.0592C127.444 87.2322 125.274 89.4037 123.103 91.5737C122.857 91.8188 122.612 92.064 122.367 92.3092C122.246 92.4298 122.125 92.5505 122.001 92.6748C121.149 93.5265 120.298 94.3793 119.447 95.2323C118.411 96.2709 117.374 97.308 116.335 98.3433C115.805 98.872 115.275 99.4013 114.747 99.9323C114.264 100.418 113.78 100.901 113.294 101.383C113.117 101.559 112.942 101.735 112.767 101.911C112.531 102.15 112.292 102.387 112.053 102.623C111.92 102.755 111.788 102.887 111.652 103.024C111.294 103.283 111.294 103.283 110.982 103.292C110.536 103.058 110.232 102.752 109.876 102.396C109.798 102.319 109.72 102.242 109.64 102.162C109.378 101.902 109.117 101.64 108.857 101.379C108.668 101.191 108.479 101.003 108.29 100.815C107.769 100.297 107.25 99.7775 106.732 99.2579C106.172 98.6983 105.612 98.14 105.051 97.5816C103.954 96.4869 102.857 95.3909 101.761 94.2945C100.87 93.4037 99.9792 92.5134 99.088 91.6234C98.8316 91.3673 98.5753 91.1113 98.3189 90.8553C98.1913 90.7279 98.0638 90.6005 97.9323 90.4692C95.518 88.0578 93.1052 85.6448 90.6928 83.2314C88.4834 81.0211 86.272 78.8129 84.0595 76.6057C81.7901 74.3416 79.5222 72.076 77.2558 69.8089C75.9824 68.5352 74.7084 67.262 73.4329 65.9904C72.3473 64.9081 71.2631 63.8245 70.1806 62.739C69.6279 62.1848 69.0744 61.6312 68.5193 61.0793C68.0119 60.5748 67.5062 60.0685 67.002 59.5607C66.8186 59.3766 66.6345 59.1932 66.4497 59.0106C66.2 58.7635 65.9527 58.5141 65.706 58.264C65.4984 58.0565 65.4984 58.0565 65.2866 57.8448C65.0141 57.4743 65.0141 57.4743 65.0057 57.1584C65.2337 56.7285 65.5237 56.4348 65.8679 56.0902C65.9413 56.016 66.0148 55.9418 66.0904 55.8654C66.3382 55.6157 66.5877 55.3678 66.8371 55.1198C67.0163 54.9399 67.1955 54.7599 67.3745 54.5798C67.8679 54.0841 68.3628 53.5899 68.8579 53.096C69.3913 52.5634 69.9232 52.0295 70.4554 51.4957C71.4987 50.4497 72.5433 49.405 73.5883 48.3607C74.4377 47.512 75.2867 46.6628 76.1353 45.8133C76.256 45.6925 76.3767 45.5717 76.501 45.4473C76.7461 45.202 76.9912 44.9566 77.2363 44.7113C79.5368 42.4086 81.8388 40.1075 84.1412 37.8068C86.2479 35.7017 88.3528 33.5948 90.4568 31.4871C92.6162 29.3238 94.7769 27.1616 96.9388 25.0008C98.1528 23.7872 99.3665 22.5733 100.579 21.3581C101.611 20.3233 102.645 19.2897 103.68 18.2574C104.208 17.7307 104.735 17.2035 105.262 16.6749C105.744 16.1909 106.227 15.7083 106.711 15.2269C106.886 15.0526 107.061 14.8778 107.234 14.7024C109.402 12.5162 109.402 12.5162 111.058 12.5182Z" fill="#FFF6CC"/>
<path d="M55.5992 66.7207C56.046 66.9546 56.3486 67.2612 56.7053 67.6183C56.822 67.7342 56.822 67.7342 56.941 67.8524C57.203 68.1132 57.4633 68.3756 57.7237 68.6381C57.9124 68.8266 58.1013 69.015 58.2902 69.2034C58.8104 69.7225 59.329 70.243 59.8475 70.7638C60.4063 71.3247 60.9666 71.8843 61.5266 72.444C62.4972 73.4143 63.4669 74.3855 64.436 75.3572C65.8372 76.7623 67.2397 78.166 68.6425 79.5694C70.9183 81.8462 73.193 84.1241 75.4671 86.4026C77.6765 88.6163 79.8864 90.8296 82.097 93.0421C82.2332 93.1785 82.3694 93.3148 82.5097 93.4552C83.193 94.1391 83.8762 94.823 84.5595 95.5068C90.2303 101.182 95.8993 106.86 101.567 112.538C101.321 113.128 100.955 113.504 100.506 113.954C100.429 114.032 100.352 114.109 100.273 114.189C100.014 114.45 99.7532 114.71 99.4928 114.969C99.3053 115.158 99.1178 115.346 98.9304 115.534C98.4143 116.053 97.8972 116.57 97.38 117.087C96.8227 117.645 96.2663 118.203 95.7098 118.762C94.4925 119.982 93.2741 121.202 92.0555 122.421C91.2952 123.182 90.5351 123.943 89.7751 124.705C87.6721 126.811 85.5689 128.916 83.4647 131.021C83.33 131.156 83.1953 131.29 83.0565 131.429C82.7835 131.702 82.5104 131.975 82.2374 132.249C82.034 132.452 82.034 132.452 81.8266 132.659C81.623 132.863 81.623 132.863 81.4153 133.071C79.2139 135.273 77.0143 137.477 74.8155 139.681C72.5599 141.943 70.3028 144.203 68.0442 146.462C66.7754 147.731 65.5071 149 64.2405 150.271C63.1625 151.353 62.0831 152.434 61.002 153.512C60.45 154.063 59.8987 154.615 59.349 155.168C58.8465 155.674 58.3422 156.178 57.8365 156.68C57.6532 156.863 57.4705 157.046 57.2886 157.23C57.0425 157.479 56.7941 157.726 56.545 157.972C56.4072 158.11 56.2695 158.247 56.1275 158.39C55.7582 158.661 55.7582 158.661 55.4427 158.67C55.0113 158.441 54.7169 158.149 54.3712 157.804C54.2967 157.73 54.2222 157.656 54.1455 157.58C53.8948 157.331 53.6458 157.081 53.3967 156.83C53.2161 156.65 53.0353 156.47 52.8545 156.29C52.3567 155.794 51.8604 155.297 51.3643 154.799C50.8295 154.264 50.2933 153.729 49.7573 153.194C48.707 152.146 47.6579 151.097 46.6093 150.047C45.7571 149.193 44.9045 148.341 44.0515 147.488C43.9303 147.367 43.809 147.246 43.6841 147.121C43.4378 146.875 43.1915 146.629 42.9452 146.382C40.6335 144.072 38.3233 141.76 36.0136 139.448C34.031 137.463 32.0472 135.48 30.0625 133.497C27.7592 131.197 25.4566 128.895 23.1553 126.592C22.9099 126.347 22.6645 126.101 22.4192 125.856C22.2984 125.735 22.1777 125.614 22.0533 125.49C21.2018 124.638 20.3498 123.786 19.4976 122.935C18.459 121.898 17.4212 120.86 16.3845 119.821C15.8554 119.29 15.3259 118.76 14.7954 118.231C14.3099 117.747 13.8254 117.262 13.3419 116.776C13.1666 116.6 12.991 116.425 12.8149 116.25C12.5757 116.012 12.3381 115.773 12.1008 115.534C11.9683 115.401 11.8359 115.268 11.6994 115.132C11.0501 114.369 10.8208 113.709 10.8119 112.715C10.8047 112.444 10.8047 112.444 10.7972 112.167C11.0477 110.634 12.3677 109.582 13.4206 108.534C13.6008 108.353 13.781 108.172 13.961 107.991C14.4542 107.495 14.9489 107.001 15.4438 106.507C15.9779 105.973 16.5107 105.438 17.0437 104.903C18.0871 103.856 19.1318 102.811 20.177 101.766C21.0261 100.917 21.8748 100.068 22.7231 99.2184C22.9675 98.9737 23.2119 98.7289 23.4563 98.4842C23.578 98.3624 23.6996 98.2406 23.825 98.1151C26.1242 95.8129 28.425 93.5122 30.7263 91.212C32.8335 89.1056 34.9387 86.9972 37.043 84.8877C39.2029 82.7226 41.3642 80.5588 43.5271 78.3966C44.7418 77.1824 45.9558 75.9675 47.1683 74.7511C48.1997 73.7164 49.2326 72.683 50.2672 71.6513C50.7954 71.1246 51.3229 70.5972 51.8487 70.0681C52.3295 69.5845 52.8119 69.1027 53.2959 68.6224C53.4713 68.4476 53.646 68.2722 53.82 68.0961C54.0554 67.858 54.293 67.6225 54.5314 67.3875C54.6632 67.2556 54.7951 67.1238 54.9309 66.9879C55.2875 66.7292 55.2875 66.7292 55.5992 66.7207Z" fill="#FFF6CC"/>
<path d="M596.708 102.562C597.185 102.995 597.639 103.452 598.094 103.907C598.145 101.06 598.197 98.2122 598.251 95.2785C601.15 95.2785 604.049 95.2785 607.036 95.2785C607.036 115.21 607.036 135.142 607.036 155.677C604.137 155.677 601.238 155.677 598.251 155.677C598.173 151.406 598.173 151.406 598.094 147.049C597.524 147.619 596.955 148.188 596.368 148.775C595.933 149.139 595.508 149.487 595.054 149.824C594.883 149.952 594.883 149.952 594.709 150.084C593.729 150.811 592.724 151.466 591.662 152.069C591.573 152.121 591.485 152.172 591.394 152.225C589.33 153.422 587.136 154.229 584.837 154.854C584.679 154.898 584.679 154.898 584.517 154.943C582.202 155.538 579.883 155.756 577.499 155.739C577.082 155.736 576.666 155.739 576.25 155.742C568.577 155.751 561.699 152.608 556.207 147.363C555.989 147.157 555.989 147.157 555.767 146.948C554.645 145.863 553.687 144.69 552.755 143.441C552.657 143.311 552.559 143.18 552.458 143.046C552.179 142.662 551.916 142.271 551.657 141.872C551.571 141.74 551.571 141.74 551.484 141.606C549.56 138.612 548.298 135.311 547.578 131.832C547.551 131.699 547.523 131.566 547.494 131.43C546.732 127.558 546.787 123.142 547.578 119.281C547.619 119.084 547.619 119.084 547.66 118.883C548.549 114.71 550.262 110.72 552.912 107.358C553.028 107.21 553.143 107.061 553.263 106.909C558.284 100.623 565.049 96.434 573.096 95.4079C581.84 94.4589 590.032 96.8403 596.708 102.562ZM562.168 110.182C561.985 110.351 561.985 110.351 561.798 110.522C557.94 114.168 555.882 119.506 555.717 124.748C555.59 130.952 557.81 136.243 562.011 140.774C566.005 144.825 571.325 146.991 576.986 147.053C582.795 147 587.822 144.775 591.975 140.774C592.084 140.675 592.193 140.576 592.305 140.474C595.815 137.188 598.052 132.158 598.276 127.374C598.487 120.644 596.672 115.265 592.074 110.3C588.483 106.511 583.39 104.192 578.175 104.03C571.94 103.904 566.657 105.853 562.168 110.182Z" fill="#FFF9DB"/>
<path d="M345.229 102.562C345.705 102.995 346.159 103.452 346.615 103.907C346.666 101.06 346.718 98.2122 346.771 95.2785C349.671 95.2785 352.57 95.2785 355.557 95.2785C355.557 115.21 355.557 135.142 355.557 155.677C352.658 155.677 349.758 155.677 346.771 155.677C346.694 151.406 346.694 151.406 346.615 147.049C346.045 147.619 345.476 148.188 344.889 148.775C344.454 149.139 344.028 149.487 343.575 149.824C343.404 149.952 343.404 149.952 343.23 150.084C342.25 150.811 341.245 151.466 340.182 152.069C340.094 152.121 340.006 152.172 339.915 152.225C337.851 153.422 335.657 154.229 333.358 154.854C333.2 154.898 333.2 154.898 333.038 154.943C330.723 155.538 328.404 155.756 326.019 155.739C325.603 155.736 325.187 155.739 324.77 155.742C317.098 155.751 310.219 152.608 304.727 147.363C304.51 147.157 304.51 147.157 304.287 146.948C303.165 145.863 302.208 144.69 301.276 143.441C301.178 143.311 301.08 143.18 300.979 143.046C300.7 142.662 300.437 142.271 300.178 141.872C300.092 141.74 300.092 141.74 300.005 141.606C298.08 138.612 296.819 135.311 296.099 131.832C296.071 131.699 296.044 131.566 296.015 131.43C295.253 127.558 295.308 123.142 296.099 119.281C296.139 119.084 296.139 119.084 296.181 118.883C297.069 114.71 298.782 110.72 301.433 107.358C301.549 107.21 301.664 107.061 301.783 106.909C306.805 100.623 313.57 96.434 321.617 95.4079C330.361 94.4589 338.553 96.8403 345.229 102.562ZM310.689 110.182C310.506 110.351 310.506 110.351 310.319 110.522C306.461 114.168 304.403 119.506 304.238 124.748C304.111 130.952 306.331 136.243 310.532 140.774C314.526 144.825 319.846 146.991 325.506 147.053C331.316 147 336.343 144.775 340.496 140.774C340.605 140.675 340.714 140.576 340.826 140.474C344.336 137.188 346.573 132.158 346.796 127.374C347.008 120.644 345.192 115.265 340.595 110.3C337.003 106.511 331.911 104.192 326.696 104.03C320.461 103.904 315.178 105.853 310.689 110.182Z" fill="#FFF9DB"/>
<path d="M704.745 102.39C706.555 104.003 708.215 105.71 709.636 107.678C709.701 107.767 709.766 107.857 709.833 107.949C712.765 112.026 714.634 116.789 715.126 121.797C715.144 121.954 715.161 122.11 715.179 122.272C715.415 124.773 715.464 127.485 714.97 129.955C698.3 129.955 681.629 129.955 664.454 129.955C666.461 136.309 669.658 141.373 675.632 144.584C680.565 147.148 686.427 147.573 691.724 145.912C695.04 144.819 697.728 143.026 700.223 140.623C700.698 140.835 701.021 141.07 701.382 141.443C701.529 141.592 701.529 141.592 701.678 141.745C701.78 141.85 701.883 141.955 701.988 142.064C702.201 142.28 702.414 142.496 702.627 142.712C702.77 142.858 702.77 142.858 702.915 143.007C703.312 143.396 703.733 143.756 704.154 144.118C704.454 144.384 704.739 144.658 705.022 144.941C705.123 145.041 705.223 145.142 705.327 145.245C705.771 145.691 706.213 146.137 706.655 146.584C705.646 147.79 704.597 148.842 703.341 149.79C703.166 149.923 703.166 149.923 702.987 150.059C701.997 150.8 700.986 151.464 699.909 152.075C699.821 152.126 699.732 152.178 699.641 152.231C697.577 153.427 695.383 154.234 693.085 154.86C692.926 154.903 692.926 154.903 692.765 154.948C690.45 155.543 688.13 155.762 685.746 155.744C685.33 155.742 684.914 155.744 684.497 155.747C676.824 155.757 669.946 152.614 664.454 147.368C664.236 147.163 664.236 147.163 664.014 146.954C662.892 145.868 661.935 144.696 661.003 143.446C660.905 143.316 660.807 143.186 660.706 143.052C660.426 142.667 660.163 142.276 659.905 141.878C659.819 141.746 659.819 141.746 659.731 141.612C657.807 138.617 656.545 135.317 655.826 131.837C655.798 131.705 655.77 131.572 655.742 131.435C654.98 127.563 655.035 123.147 655.826 119.287C655.866 119.09 655.866 119.09 655.907 118.888C656.796 114.715 658.509 110.725 661.16 107.364C661.275 107.216 661.391 107.067 661.51 106.914C666.531 100.629 673.297 96.4396 681.344 95.4135C689.877 94.4874 698.232 96.7236 704.745 102.39ZM670.416 110.188C670.232 110.356 670.232 110.356 670.045 110.528C667.886 112.568 666.285 115.236 665.248 118.002C665.204 118.12 665.16 118.238 665.114 118.36C664.778 119.307 664.639 120.152 664.454 121.169C678.225 121.169 691.996 121.169 706.184 121.169C705.631 118.886 705.631 118.886 704.812 116.728C704.733 116.556 704.733 116.556 704.652 116.38C702.328 111.466 697.941 107.265 692.849 105.325C684.818 102.543 676.506 104.315 670.416 110.188Z" fill="#FFF9DB"/>
<path d="M262.742 80.3011C263.318 80.8299 263.87 81.3815 264.409 81.9472C264.168 82.5205 263.824 82.8797 263.383 83.3125C263.24 83.4535 263.097 83.5944 262.95 83.7397C262.799 83.8874 262.648 84.0351 262.497 84.1827C261.527 85.1345 260.582 86.0881 259.703 87.1242C259.513 87.3392 259.321 87.5526 259.124 87.7616C259.039 87.854 258.955 87.9464 258.867 88.0416C258.604 88.2224 258.604 88.2224 258.301 88.2157C257.863 88.0128 257.618 87.7336 257.291 87.3792C253.925 83.9253 249.366 81.3605 244.799 79.9077C244.686 79.8712 244.573 79.8347 244.457 79.7971C236.13 77.1509 226.592 77.9285 218.805 81.8617C216.549 83.045 214.384 84.4859 212.482 86.183C212.257 86.3826 212.257 86.3826 212.027 86.5862C205.091 92.8086 200.844 101.007 200.267 110.371C199.883 118.066 201.686 125.829 206.206 132.149C206.312 132.298 206.418 132.447 206.527 132.6C208.417 135.188 210.583 137.546 213.109 139.522C213.304 139.681 213.5 139.839 213.695 139.997C220.58 145.506 229.572 147.634 238.266 146.681C245.428 145.767 251.732 142.834 257.036 137.953C257.452 137.585 257.871 137.22 258.291 136.855C259.111 137.541 259.876 138.262 260.629 139.021C260.742 139.135 260.855 139.248 260.972 139.365C261.33 139.724 261.688 140.084 262.046 140.444C262.29 140.689 262.535 140.934 262.779 141.179C263.375 141.777 263.971 142.375 264.566 142.974C264.418 143.148 264.271 143.321 264.123 143.495C264.041 143.592 263.959 143.688 263.874 143.788C263.51 144.203 263.119 144.581 262.713 144.954C262.584 145.073 262.584 145.073 262.452 145.194C254.789 152.113 244.919 155.805 234.625 155.742C234.131 155.74 233.638 155.742 233.144 155.745C230.18 155.749 227.238 155.463 224.346 154.799C224.171 154.759 223.997 154.719 223.818 154.678C217.777 153.241 212.213 150.406 207.461 146.425C207.305 146.298 207.15 146.171 206.989 146.04C204.704 144.154 202.506 142.045 200.716 139.679C200.561 139.485 200.407 139.292 200.252 139.099C198.316 136.66 196.691 134.031 195.382 131.208C195.33 131.099 195.279 130.991 195.226 130.879C193.241 126.689 192.205 122.301 191.616 117.716C191.6 117.587 191.583 117.457 191.566 117.324C190.371 106.38 193.24 94.9856 200.088 86.3104C200.296 86.0577 200.505 85.8061 200.716 85.5554C200.854 85.3873 200.993 85.2192 201.132 85.0511C201.945 84.0733 202.779 83.1432 203.696 82.2609C204.099 81.8611 204.498 81.4582 204.892 81.0488C205.948 79.9554 207.06 78.9922 208.277 78.0808C208.557 77.8704 208.834 77.6569 209.112 77.443C221.567 67.9494 239.272 66.9227 262.742 80.3011Z" fill="#FFF9DB"/>
<path d="M453.894 102.39C455.704 104.003 457.364 105.71 458.784 107.678C458.849 107.767 458.914 107.857 458.982 107.949C461.914 112.027 463.782 116.788 464.275 121.797C464.292 121.952 464.309 122.107 464.327 122.266C465 129.315 463.534 136.904 459.255 142.662C459.194 142.744 459.134 142.826 459.072 142.911C458.202 144.088 457.284 145.21 456.274 146.27C456.187 146.362 456.1 146.454 456.011 146.549C453.933 148.735 451.684 150.583 449.057 152.075C448.969 152.126 448.881 152.178 448.79 152.231C446.726 153.427 444.532 154.234 442.233 154.86C442.075 154.903 442.075 154.903 441.913 154.948C439.598 155.543 437.279 155.762 434.894 155.744C434.478 155.742 434.062 155.744 433.645 155.747C425.973 155.757 419.094 152.614 413.602 147.368C413.385 147.163 413.385 147.163 413.162 146.954C412.04 145.868 411.083 144.696 410.151 143.446C410.053 143.316 409.955 143.186 409.854 143.052C409.575 142.667 409.312 142.276 409.053 141.878C408.967 141.746 408.967 141.746 408.88 141.612C406.955 138.617 405.694 135.317 404.974 131.837C404.946 131.705 404.919 131.572 404.89 131.435C404.128 127.563 404.183 123.147 404.974 119.287C405.014 119.09 405.014 119.09 405.056 118.888C405.944 114.715 407.657 110.725 410.308 107.364C410.424 107.216 410.539 107.067 410.658 106.914C415.68 100.629 422.445 96.4396 430.492 95.4135C439.025 94.4874 447.381 96.7236 453.894 102.39ZM419.564 110.188C419.381 110.356 419.381 110.356 419.194 110.528C415.336 114.174 413.278 119.512 413.113 124.753C412.986 130.958 415.206 136.249 419.407 140.779C423.401 144.831 428.721 146.997 434.381 147.058C440.191 147.006 445.218 144.781 449.371 140.779C449.48 140.681 449.589 140.582 449.701 140.48C453.211 137.193 455.448 132.163 455.671 127.38C455.883 120.65 454.067 115.271 449.47 110.306C445.878 106.516 440.786 104.198 435.571 104.036C429.336 103.91 424.053 105.859 419.564 110.188Z" fill="#FFF9DB"/>
<path d="M475.727 95.2796C478.833 95.2796 481.94 95.2796 485.14 95.2796C486.22 97.6204 486.22 97.6204 486.617 98.5741C486.687 98.7392 486.687 98.7392 486.757 98.9077C486.856 99.1438 486.955 99.38 487.054 99.6163C487.271 100.135 487.489 100.653 487.706 101.172C487.822 101.448 487.938 101.725 488.055 102.002C488.656 103.436 489.261 104.868 489.866 106.3C490.054 106.745 490.242 107.191 490.43 107.636C490.684 108.237 490.938 108.839 491.192 109.44C491.753 110.77 492.315 112.1 492.877 113.43C493.187 114.165 493.497 114.9 493.808 115.635C493.932 115.929 494.056 116.223 494.18 116.517C494.242 116.663 494.303 116.808 494.366 116.959C497.906 125.342 497.906 125.342 498.092 125.783C498.217 126.077 498.341 126.371 498.465 126.666C498.775 127.4 499.085 128.134 499.395 128.869C499.959 130.205 500.524 131.542 501.089 132.879C502.687 136.657 504.275 140.438 505.848 144.226C507.094 141.443 508.276 138.636 509.444 135.819C510.06 134.335 510.679 132.853 511.3 131.372C511.358 131.231 511.417 131.091 511.478 130.946C512.95 127.43 514.435 123.918 515.919 120.407C516.357 119.372 516.794 118.337 517.232 117.302C517.293 117.156 517.355 117.01 517.419 116.859C518.383 114.575 519.342 112.29 520.298 110.002C521.285 107.642 522.278 105.286 523.275 102.93C523.894 101.468 524.512 100.004 525.117 98.5361C525.163 98.4267 525.208 98.3172 525.254 98.2045C525.46 97.7061 525.664 97.2074 525.868 96.7084C525.937 96.5403 526.006 96.3721 526.077 96.1988C526.136 96.054 526.195 95.9091 526.256 95.7599C526.399 95.4365 526.399 95.4365 526.556 95.2796C526.85 95.2649 527.144 95.2612 527.438 95.2618C527.721 95.2618 527.721 95.2618 528.009 95.2618C528.214 95.2626 528.419 95.2634 528.631 95.2643C528.841 95.2646 529.052 95.2648 529.263 95.2649C529.819 95.2655 530.375 95.2671 530.931 95.2688C531.497 95.2704 532.064 95.2711 532.631 95.2719C533.744 95.2736 534.856 95.2763 535.969 95.2796C535.879 95.7844 535.762 96.235 535.561 96.7065C535.509 96.8288 535.457 96.951 535.404 97.077C535.348 97.2085 535.291 97.3399 535.233 97.4753C535.145 97.6842 535.145 97.6842 535.054 97.8974C534.86 98.3553 534.664 98.8128 534.469 99.2702C534.333 99.5912 534.196 99.9122 534.06 100.233C533.783 100.886 533.505 101.539 533.227 102.192C532.724 103.376 532.225 104.562 531.726 105.748C531.472 106.352 531.218 106.956 530.964 107.56C530.912 107.682 530.861 107.804 530.808 107.93C530.087 109.643 529.363 111.355 528.64 113.067C527.787 115.086 526.936 117.105 526.086 119.125C525.182 121.273 524.276 123.421 523.37 125.567C523.307 125.715 523.245 125.862 523.181 126.014C522.549 127.51 521.917 129.007 521.285 130.502C520.973 131.24 520.661 131.978 520.35 132.715C520.257 132.934 520.257 132.934 520.163 133.157C519.191 135.459 518.225 137.763 517.261 140.069C516.304 142.358 515.338 144.644 514.365 146.927C513.794 148.265 513.227 149.605 512.664 150.948C512.606 151.086 512.548 151.225 512.488 151.368C512.209 152.034 511.93 152.7 511.653 153.366C511.553 153.604 511.454 153.841 511.354 154.078C511.309 154.187 511.265 154.295 511.218 154.406C511.026 154.864 510.831 155.263 510.555 155.679C510.153 155.735 510.153 155.735 509.64 155.732C509.449 155.732 509.257 155.732 509.06 155.732C508.85 155.729 508.64 155.727 508.43 155.725C508.216 155.724 508.002 155.723 507.788 155.722C507.224 155.721 506.661 155.716 506.097 155.711C505.522 155.706 504.946 155.704 504.371 155.702C503.242 155.696 502.114 155.688 500.985 155.679C499.638 152.55 498.291 149.421 496.984 146.276C496.937 146.163 496.89 146.05 496.842 145.933C496.649 145.467 496.455 145.001 496.262 144.536C495.656 143.075 495.046 141.616 494.435 140.157C494.376 140.017 494.317 139.876 494.257 139.731C492.847 136.363 491.425 133 490.003 129.636C489.503 128.453 489.003 127.27 488.503 126.087C488.441 125.941 488.38 125.795 488.316 125.644C487.351 123.36 486.392 121.073 485.436 118.785C484.469 116.474 483.496 114.165 482.521 111.857C481.546 109.552 480.577 107.244 479.613 104.933C478.956 103.361 478.295 101.791 477.624 100.224C477.562 100.078 477.499 99.932 477.435 99.7814C477.135 99.0803 476.834 98.3796 476.532 97.6795C476.425 97.4303 476.318 97.181 476.211 96.9317C476.162 96.8183 476.112 96.7049 476.062 96.5881C475.864 96.1255 475.727 95.7881 475.727 95.2796Z" fill="#FFF9DB"/>
<path d="M626.803 78.0254C629.702 78.0254 632.601 78.0254 635.588 78.0254C635.588 83.7201 635.588 89.4149 635.588 95.2822C638.384 95.2822 641.179 95.2822 644.06 95.2822C644.06 98.1814 644.06 101.081 644.06 104.068C641.264 104.068 638.468 104.068 635.588 104.068C635.594 108.61 635.603 113.152 635.616 117.694C635.618 118.231 635.619 118.768 635.621 119.305C635.621 119.411 635.621 119.518 635.622 119.629C635.626 121.356 635.629 123.084 635.631 124.812C635.633 126.587 635.637 128.361 635.644 130.136C635.647 131.132 635.65 132.128 635.65 133.124C635.65 134.063 635.652 135.001 635.657 135.94C635.659 136.283 635.659 136.627 635.658 136.97C635.651 139.945 636.014 142.236 638.128 144.503C639.866 146.153 641.747 146.632 644.06 147.053C644.06 149.9 644.06 152.748 644.06 155.681C639.034 155.681 635.081 154.07 631.509 150.504C627.764 146.41 626.748 141.683 626.767 136.286C626.767 135.933 626.767 135.58 626.767 135.227C626.767 134.277 626.769 133.326 626.771 132.375C626.773 131.379 626.773 130.383 626.774 129.386C626.774 127.716 626.776 126.047 626.779 124.377C626.782 122.658 626.784 120.939 626.786 119.22C626.786 119.061 626.786 119.061 626.786 118.898C626.786 118.365 626.787 117.832 626.787 117.3C626.79 112.889 626.796 108.478 626.803 104.068C624.007 104.068 621.212 104.068 618.331 104.068C618.331 101.168 618.331 98.2692 618.331 95.2822C621.127 95.2822 623.923 95.2822 626.803 95.2822C626.803 89.5875 626.803 83.8927 626.803 78.0254Z" fill="#FFF9DB"/>
<path d="M366.695 95.2833C369.543 95.2833 372.39 95.2833 375.324 95.2833C375.375 98.1307 375.427 100.978 375.48 103.912C375.843 103.549 376.205 103.187 376.579 102.814C377.136 102.32 377.718 101.861 378.304 101.402C378.434 101.3 378.434 101.3 378.567 101.196C383.458 97.3847 389.565 95.2318 395.778 95.268C395.975 95.2683 395.975 95.2683 396.175 95.2685C396.657 95.2693 397.138 95.2715 397.62 95.2735C398.701 95.2768 399.782 95.28 400.895 95.2833C400.895 98.1825 400.895 101.082 400.895 104.069C397.944 104.118 397.944 104.118 397.033 104.13C394.634 104.173 392.238 104.385 389.962 105.196C389.826 105.244 389.69 105.291 389.549 105.34C386.507 106.428 384.07 108.115 381.756 110.344C381.645 110.445 381.534 110.545 381.42 110.649C377.763 114.077 375.777 119.22 375.48 124.149C375.449 125.179 375.451 126.21 375.448 127.24C375.447 127.551 375.445 127.862 375.444 128.173C375.439 129.012 375.436 129.852 375.433 130.692C375.429 131.571 375.425 132.45 375.421 133.329C375.413 134.992 375.406 136.655 375.399 138.318C375.392 140.212 375.383 142.106 375.374 144C375.356 147.894 375.34 151.788 375.324 155.682C372.476 155.682 369.629 155.682 366.695 155.682C366.695 135.751 366.695 115.819 366.695 95.2833Z" fill="#FFF9DB"/>
<path d="M275.705 69.3965C278.552 69.3965 281.399 69.3965 284.333 69.3965C284.333 97.8703 284.333 126.344 284.333 155.681C281.486 155.681 278.638 155.681 275.705 155.681C275.705 127.207 275.705 98.7331 275.705 69.3965Z" fill="#FFF9DB"/>
<path d="M337.202 190.509C337.326 190.577 337.45 190.645 337.579 190.716C339.026 191.597 340.021 192.83 340.431 194.486C340.718 196.306 340.499 197.821 339.427 199.323C338.563 200.447 337.535 201.268 336.349 202.03C336.219 202.114 336.089 202.199 335.956 202.287C335.64 202.493 335.323 202.698 335.005 202.902C335.256 203.424 335.544 203.829 335.917 204.275C336.043 204.427 336.169 204.579 336.299 204.735C336.368 204.818 336.437 204.901 336.509 204.987C336.919 205.482 337.325 205.982 337.731 206.481C337.86 206.64 337.86 206.64 337.992 206.801C338.423 207.331 338.849 207.864 339.268 208.403C339.346 208.504 339.424 208.605 339.505 208.708C339.652 208.899 339.799 209.09 339.945 209.281C340.266 209.696 340.525 209.981 340.967 210.276C341.768 208.695 342.129 207.16 342.379 205.412C343.414 205.412 344.45 205.412 345.516 205.412C345.516 206.48 345.498 207.334 345.261 208.344C345.234 208.464 345.207 208.584 345.178 208.708C344.849 210.078 344.365 211.415 343.674 212.646C343.452 213.076 343.452 213.076 343.474 213.488C343.698 214.043 344.062 214.446 344.457 214.884C344.615 215.064 344.772 215.244 344.929 215.424C345.004 215.51 345.078 215.595 345.155 215.684C345.517 216.109 345.832 216.559 346.144 217.021C345.698 217.613 345.224 218.088 344.654 218.561C344.506 218.685 344.359 218.809 344.207 218.936C343.791 219.218 343.791 219.218 343.163 219.218C342.91 218.992 342.91 218.992 342.667 218.68C342.578 218.568 342.49 218.456 342.398 218.341C342.308 218.223 342.217 218.104 342.124 217.982C341.942 217.751 341.76 217.519 341.578 217.287C341.499 217.184 341.419 217.08 341.337 216.974C341.118 216.69 341.118 216.69 340.81 216.394C340.677 216.523 340.545 216.653 340.408 216.786C337.91 218.916 334.508 219.668 331.292 219.508C329.282 219.347 327.516 218.711 325.906 217.492C325.664 217.317 325.664 217.317 325.416 217.139C324.145 215.924 323.042 214.099 322.9 212.309C322.846 209.528 323.265 207.563 325.218 205.458C326.501 204.227 327.958 203.279 329.515 202.432C329.164 201.787 328.79 201.191 328.358 200.598C326.978 198.649 326.307 196.964 326.691 194.588C327.101 192.876 328.327 191.603 329.796 190.694C331.895 189.57 335.088 189.325 337.202 190.509ZM330.799 193.607C330.19 194.512 329.856 195.303 330.032 196.405C330.513 198.067 331.722 199.538 332.966 200.706C335.545 199.331 335.545 199.331 337.045 196.941C337.154 195.626 336.989 194.721 336.231 193.617C335.398 192.784 334.698 192.511 333.515 192.47C332.335 192.511 331.638 192.787 330.799 193.607ZM328.073 207.069C326.985 208.226 326.478 209.534 326.501 211.105C326.63 212.765 327.428 214.056 328.612 215.188C330.131 216.443 331.643 216.552 333.551 216.43C335.618 216.223 337.459 215.149 338.927 213.727C337.778 212.168 336.547 210.675 335.319 209.177C335.084 208.89 334.848 208.602 334.613 208.315C334.497 208.173 334.381 208.031 334.262 207.886C334.02 207.59 333.779 207.294 333.538 206.998C332.563 205.799 332.563 205.799 331.554 204.628C330.59 204.628 328.746 206.432 328.073 207.069Z" fill="#FFF9DB"/>
<path d="M609.075 197.969C609.233 197.97 609.233 197.97 609.394 197.97C611.676 197.98 613.79 198.352 615.978 198.979C615.993 201.902 616.004 204.824 616.011 207.747C616.014 209.104 616.018 210.461 616.026 211.819C616.032 213.003 616.036 214.187 616.037 215.371C616.038 215.997 616.04 216.623 616.045 217.249C616.049 217.84 616.05 218.431 616.049 219.023C616.049 219.339 616.053 219.655 616.056 219.971C616.045 222.632 615.382 224.897 613.537 226.858C611.18 229.072 607.921 229.052 604.89 228.971C602.37 228.838 600.133 227.612 598.408 225.806C598.304 225.65 598.201 225.495 598.094 225.335C598.715 224.662 599.336 223.989 599.976 223.296C600.508 223.561 600.756 223.733 601.163 224.129C603.107 225.867 605.555 225.934 608.023 225.836C609.414 225.736 610.769 225.27 611.742 224.237C612.944 222.66 612.9 220.643 612.997 218.746C612.878 218.778 612.758 218.81 612.634 218.844C609.225 219.701 605.531 219.559 602.429 217.768C601.698 217.278 601.069 216.7 600.447 216.079C600.311 215.946 600.311 215.946 600.173 215.811C598.125 213.629 597.794 210.579 597.877 207.733C598.016 205.043 599.028 202.642 600.918 200.705C603.265 198.643 606.012 197.946 609.075 197.969ZM604.997 201.332C604.871 201.399 604.746 201.466 604.617 201.534C602.846 202.601 601.79 204.239 601.261 206.206C600.767 208.623 600.928 211.268 602.212 213.422C603.341 215.017 604.931 216.046 606.844 216.491C607.511 216.604 608.175 216.608 608.85 216.609C609.059 216.614 609.059 216.614 609.272 216.62C610.661 216.626 611.551 216.308 612.997 215.922C612.997 211.108 612.997 206.293 612.997 201.332C610.655 200.454 607.298 200.109 604.997 201.332Z" fill="#FFF9DB"/>
<path d="M209.315 189.499C209.625 189.501 209.625 189.501 209.942 189.503C213.458 189.564 216.478 190.848 218.947 193.374C219.154 193.614 219.35 193.864 219.541 194.117C219.296 194.75 218.845 195.132 218.345 195.568C218.224 195.676 218.224 195.676 218.1 195.786C217.901 195.963 217.702 196.138 217.502 196.313C216.947 196.079 216.617 195.761 216.208 195.323C214.511 193.601 212.432 193.006 210.047 192.982C209.883 192.981 209.719 192.981 209.55 192.98C209.389 192.976 209.228 192.973 209.063 192.97C206.513 192.957 204.426 193.928 202.598 195.686C200.855 197.693 199.879 200.568 199.774 203.216C199.766 203.382 199.758 203.548 199.75 203.719C199.659 207.275 200.459 210.889 202.961 213.541C205.292 215.753 207.879 216.022 210.944 215.945C213.163 215.837 215.169 214.726 216.676 213.124C216.854 212.912 217.022 212.693 217.188 212.472C217.8 212.726 218.241 213.143 218.718 213.59C218.797 213.663 218.877 213.737 218.959 213.812C219.153 213.992 219.347 214.173 219.541 214.355C218.898 216.142 216.74 217.449 215.09 218.257C214.798 218.375 214.504 218.486 214.207 218.59C214.043 218.652 213.878 218.713 213.708 218.776C210.435 219.794 206.58 219.553 203.5 218.09C200.437 216.467 198.352 213.691 197.264 210.433C195.905 205.621 196.005 200.178 198.353 195.676C199.953 192.964 202.353 190.817 205.402 189.903C206.718 189.579 207.962 189.488 209.315 189.499Z" fill="#FFF9DB"/>
<path d="M654.728 189.879C655.711 189.879 656.695 189.879 657.708 189.879C657.76 193.399 657.812 196.92 657.865 200.547C658.228 200.184 658.59 199.822 658.963 199.449C659.422 199.118 659.422 199.118 659.865 198.86C660.01 198.774 660.155 198.687 660.304 198.598C661.659 197.979 662.965 197.796 664.444 197.811C664.61 197.812 664.775 197.814 664.945 197.815C666.129 197.84 667.153 197.961 668.219 198.507C668.428 198.613 668.428 198.613 668.64 198.72C670.415 199.704 671.413 201.037 671.995 202.99C672.178 203.746 672.183 204.477 672.177 205.253C672.177 205.404 672.177 205.556 672.177 205.712C672.177 206.21 672.174 206.707 672.172 207.204C672.171 207.551 672.171 207.897 672.171 208.244C672.169 209.153 672.166 210.061 672.163 210.97C672.16 211.899 672.158 212.827 672.157 213.756C672.153 215.576 672.148 217.396 672.141 219.216C671.158 219.216 670.174 219.216 669.161 219.216C669.158 218.798 669.156 218.38 669.154 217.949C669.146 216.563 669.135 215.177 669.124 213.79C669.117 212.95 669.11 212.111 669.106 211.271C669.102 210.459 669.096 209.647 669.088 208.836C669.085 208.527 669.084 208.219 669.083 207.91C669.139 204.884 669.139 204.884 667.875 202.223C666.585 201.019 665.026 200.782 663.332 200.823C661.504 200.938 660.308 202.104 659.123 203.418C659.019 203.558 658.914 203.697 658.806 203.841C658.73 203.931 658.653 204.021 658.574 204.114C657.575 205.47 657.731 206.976 657.739 208.583C657.737 208.891 657.735 209.198 657.732 209.505C657.727 210.309 657.727 211.113 657.728 211.917C657.728 212.74 657.723 213.562 657.718 214.385C657.71 215.995 657.708 217.605 657.708 219.216C656.725 219.216 655.741 219.216 654.728 219.216C654.728 209.534 654.728 199.853 654.728 189.879Z" fill="#FFF9DB"/>
<path d="M466.049 197.988C466.229 197.986 466.409 197.983 466.595 197.98C468.93 197.979 471.018 198.573 472.74 200.198C474.649 202.282 474.538 204.753 474.518 207.408C474.517 207.753 474.516 208.099 474.516 208.445C474.514 209.35 474.51 210.255 474.504 211.16C474.499 212.085 474.497 213.011 474.495 213.936C474.49 215.749 474.482 217.561 474.472 219.373C473.488 219.373 472.505 219.373 471.491 219.373C471.414 218.441 471.414 218.441 471.334 217.49C471.192 217.629 471.05 217.769 470.903 217.912C469.363 219.238 467.535 219.405 465.594 219.411C465.279 219.412 464.964 219.417 464.649 219.422C462.46 219.431 460.555 218.992 458.913 217.489C457.863 216.342 457.469 214.973 457.48 213.451C457.481 213.325 457.482 213.2 457.483 213.07C457.521 211.22 458.141 209.578 459.5 208.274C461.43 206.709 463.596 206.452 465.979 206.459C466.34 206.46 466.701 206.456 467.062 206.452C468.551 206.446 469.888 206.596 471.334 206.979C471.428 204.533 471.428 204.533 470.383 202.381C469.45 201.4 468.193 200.858 466.848 200.824C464.754 200.781 463.126 200.826 461.539 202.338C461.458 202.42 461.377 202.502 461.294 202.587C461.191 202.69 461.087 202.794 460.98 202.9C460.698 202.68 460.417 202.457 460.137 202.234C459.981 202.11 459.824 201.986 459.663 201.859C459.297 201.527 459.114 201.315 458.941 200.861C459.951 199.345 461.804 198.471 463.541 198.101C464.374 197.974 465.209 197.986 466.049 197.988ZM461.255 210.96C460.552 211.833 460.434 212.664 460.462 213.765C460.554 214.601 460.815 215.172 461.455 215.726C463.23 216.983 465.466 216.941 467.55 216.609C469.033 216.206 470.46 215.357 471.341 214.069C471.658 213.343 471.57 212.551 471.54 211.774C471.537 211.599 471.533 211.425 471.53 211.245C471.52 210.816 471.508 210.388 471.491 209.96C471.273 209.884 471.053 209.809 470.834 209.735C470.712 209.693 470.59 209.651 470.465 209.608C469.379 209.275 468.302 209.298 467.177 209.295C466.838 209.293 466.498 209.288 466.159 209.284C464.24 209.269 462.613 209.477 461.255 210.96Z" fill="#FFF9DB"/>
<path d="M238.259 197.988C238.439 197.986 238.619 197.983 238.804 197.98C241.139 197.979 243.227 198.573 244.95 200.198C246.858 202.282 246.747 204.753 246.728 207.408C246.727 207.753 246.726 208.099 246.725 208.445C246.724 209.35 246.719 210.255 246.714 211.16C246.709 212.085 246.707 213.011 246.705 213.936C246.699 215.749 246.691 217.561 246.682 219.373C245.698 219.373 244.714 219.373 243.701 219.373C243.623 218.441 243.623 218.441 243.544 217.49C243.402 217.629 243.259 217.769 243.113 217.912C241.573 219.238 239.745 219.405 237.804 219.411C237.489 219.412 237.174 219.417 236.859 219.422C234.67 219.431 232.764 218.992 231.123 217.489C230.072 216.342 229.678 214.973 229.689 213.451C229.69 213.325 229.691 213.2 229.692 213.07C229.73 211.22 230.351 209.578 231.709 208.274C233.64 206.709 235.806 206.452 238.189 206.459C238.55 206.46 238.911 206.456 239.272 206.452C240.76 206.446 242.097 206.596 243.544 206.979C243.638 204.533 243.638 204.533 242.593 202.381C241.66 201.4 240.403 200.858 239.058 200.824C236.964 200.781 235.336 200.826 233.748 202.338C233.667 202.42 233.587 202.502 233.504 202.587C233.4 202.69 233.297 202.794 233.19 202.9C232.908 202.68 232.627 202.457 232.347 202.234C232.19 202.11 232.034 201.986 231.872 201.859C231.506 201.527 231.323 201.315 231.15 200.861C232.161 199.345 234.013 198.471 235.75 198.101C236.583 197.974 237.418 197.986 238.259 197.988ZM233.464 210.96C232.761 211.833 232.644 212.664 232.672 213.765C232.764 214.601 233.025 215.172 233.664 215.726C235.44 216.983 237.675 216.941 239.759 216.609C241.243 216.206 242.669 215.357 243.55 214.069C243.868 213.343 243.78 212.551 243.75 211.774C243.746 211.599 243.743 211.425 243.739 211.245C243.73 210.816 243.717 210.388 243.701 209.96C243.482 209.884 243.263 209.809 243.044 209.735C242.922 209.693 242.8 209.651 242.674 209.608C241.589 209.275 240.512 209.298 239.387 209.295C239.047 209.293 238.708 209.288 238.368 209.284C236.449 209.269 234.823 209.477 233.464 210.96Z" fill="#FFF9DB"/>
<path d="M685.211 197.969C685.469 197.971 685.469 197.971 685.733 197.973C688.077 198.022 689.974 198.665 691.722 200.283C693.022 201.677 693.713 203.428 694.065 205.274C694.085 205.374 694.105 205.474 694.126 205.577C694.336 206.797 694.261 207.894 694.261 209.177C689.188 209.177 684.114 209.177 678.887 209.177C679.263 211.808 679.821 213.666 681.844 215.367C683.65 216.659 686.016 216.641 688.131 216.291C689.287 215.968 690.193 215.415 691.124 214.667C691.268 214.552 691.412 214.438 691.56 214.319C691.675 214.227 691.79 214.135 691.908 214.04C692.202 214.312 692.492 214.587 692.781 214.863C692.864 214.94 692.948 215.018 693.034 215.097C693.631 215.674 693.631 215.674 693.645 216.098C692.743 217.682 690.617 218.572 688.937 219.04C686.092 219.645 682.858 219.555 680.324 218.002C679.938 217.738 679.568 217.466 679.201 217.177C679.004 217.029 679.004 217.029 678.803 216.878C677.039 215.38 675.959 212.861 675.749 210.588C675.543 207.05 675.841 203.648 678.175 200.809C680.062 198.773 682.475 197.943 685.211 197.969ZM680.456 202.588C679.649 203.739 678.887 205.067 678.887 206.51C682.977 206.51 687.067 206.51 691.281 206.51C690.978 204.544 690.714 202.972 689.108 201.709C686.513 200.022 682.534 200.134 680.456 202.588Z" fill="#FFF9DB"/>
<path d="M629.048 197.969C629.306 197.971 629.306 197.971 629.57 197.973C631.914 198.022 633.811 198.665 635.559 200.283C636.859 201.677 637.55 203.428 637.902 205.274C637.922 205.374 637.942 205.474 637.963 205.577C638.173 206.797 638.098 207.894 638.098 209.177C633.025 209.177 627.951 209.177 622.724 209.177C623.1 211.808 623.658 213.666 625.681 215.367C627.487 216.659 629.853 216.641 631.968 216.291C633.124 215.968 634.03 215.415 634.961 214.667C635.105 214.552 635.249 214.438 635.397 214.319C635.512 214.227 635.627 214.135 635.745 214.04C636.039 214.312 636.329 214.587 636.618 214.863C636.701 214.94 636.785 215.018 636.871 215.097C637.468 215.674 637.468 215.674 637.482 216.098C636.58 217.682 634.454 218.572 632.774 219.04C629.929 219.645 626.695 219.555 624.161 218.002C623.775 217.738 623.405 217.466 623.038 217.177C622.841 217.029 622.841 217.029 622.64 216.878C620.876 215.38 619.796 212.861 619.586 210.588C619.38 207.05 619.678 203.648 622.012 200.809C623.899 198.773 626.312 197.943 629.048 197.969ZM624.293 202.588C623.486 203.739 622.724 205.067 622.724 206.51C626.814 206.51 630.904 206.51 635.118 206.51C634.815 204.544 634.551 202.972 632.945 201.709C630.35 200.022 626.371 200.134 624.293 202.588Z" fill="#FFF9DB"/>
<path d="M584.504 197.969C584.691 197.97 584.878 197.971 585.07 197.972C586.38 197.996 587.48 198.111 588.681 198.665C588.794 198.711 588.907 198.756 589.024 198.803C591.034 199.682 592.454 201.446 593.373 203.394C593.945 204.89 594.269 206.479 594.329 208.078C594.338 208.242 594.338 208.242 594.348 208.409C594.446 211.476 593.599 214.714 591.475 216.991C589.534 218.801 587.07 219.555 584.445 219.531C581.728 219.398 579.289 218.645 577.371 216.605C575.471 214.265 574.811 211.619 574.826 208.657C574.827 208.485 574.828 208.313 574.829 208.135C574.869 205.331 575.658 202.591 577.582 200.473C579.533 198.603 581.855 197.946 584.504 197.969ZM579.896 202.274C578.084 204.452 577.825 207.482 578.061 210.206C578.347 212.513 579.097 214.455 580.924 215.965C582.468 217.057 584.345 217.074 586.171 216.864C587.701 216.507 588.934 215.656 589.78 214.332C591.255 211.581 591.431 208.331 590.727 205.313C590.139 203.411 589.234 202.071 587.529 201.06C585.057 199.887 581.825 200.322 579.896 202.274Z" fill="#FFF9DB"/>
<path d="M508.103 197.969C508.29 197.97 508.477 197.971 508.669 197.972C509.979 197.996 511.079 198.111 512.28 198.666C512.393 198.711 512.507 198.756 512.623 198.803C514.634 199.682 516.054 201.446 516.972 203.394C517.544 204.89 517.869 206.479 517.928 208.078C517.937 208.242 517.937 208.242 517.947 208.409C518.045 211.476 517.198 214.714 515.075 216.991C513.068 218.862 510.846 219.423 508.182 219.442C508.012 219.444 507.841 219.446 507.666 219.447C505.151 219.42 503.158 218.641 501.332 216.907C498.945 214.453 498.378 211.384 498.411 208.077C498.49 205.125 499.381 202.199 501.563 200.107C503.473 198.49 505.649 197.948 508.103 197.969ZM503.495 202.274C501.683 204.452 501.425 207.482 501.661 210.206C501.947 212.513 502.697 214.455 504.523 215.965C506.067 217.057 507.944 217.074 509.77 216.864C511.301 216.507 512.533 215.656 513.379 214.332C514.855 211.581 515.03 208.331 514.326 205.313C513.738 203.411 512.833 202.071 511.129 201.06C508.657 199.887 505.424 200.322 503.495 202.274Z" fill="#FFF9DB"/>
<path d="M420.564 197.969C420.751 197.97 420.938 197.971 421.13 197.972C422.44 197.996 423.54 198.111 424.741 198.666C424.854 198.711 424.967 198.756 425.084 198.803C427.094 199.682 428.514 201.446 429.433 203.394C430.005 204.89 430.329 206.479 430.389 208.078C430.398 208.242 430.398 208.242 430.408 208.409C430.506 211.476 429.659 214.714 427.535 216.991C425.529 218.862 423.307 219.423 420.642 219.442C420.472 219.444 420.302 219.446 420.127 219.447C417.612 219.42 415.619 218.641 413.793 216.907C411.406 214.453 410.838 211.384 410.872 208.077C410.95 205.125 411.841 202.199 414.024 200.107C415.933 198.49 418.11 197.948 420.564 197.969ZM415.956 202.274C414.143 204.452 413.885 207.482 414.121 210.206C414.407 212.513 415.157 214.455 416.984 215.965C418.528 217.057 420.405 217.074 422.231 216.864C423.761 216.507 424.994 215.656 425.84 214.332C427.315 211.581 427.491 208.331 426.787 205.313C426.199 203.411 425.294 202.071 423.589 201.06C421.117 199.887 417.885 200.322 415.956 202.274Z" fill="#FFF9DB"/>
<path d="M286.686 198.193C287.825 198.193 288.964 198.193 290.137 198.193C291.64 201.927 293.117 205.67 294.586 209.416C294.694 209.691 294.694 209.691 294.804 209.971C294.943 210.326 295.082 210.681 295.221 211.037C295.509 211.772 295.799 212.507 296.097 213.238C296.142 213.348 296.187 213.459 296.234 213.573C296.348 213.852 296.463 214.131 296.578 214.41C296.726 214.823 296.726 214.823 296.726 215.293C296.83 215.293 296.933 215.293 297.04 215.293C297.057 215.162 297.074 215.03 297.092 214.894C297.207 214.301 297.401 213.767 297.628 213.21C297.672 213.098 297.717 212.987 297.762 212.872C297.859 212.63 297.956 212.388 298.053 212.145C298.264 211.621 298.473 211.096 298.682 210.57C298.794 210.289 298.907 210.008 299.019 209.726C299.639 208.172 300.249 206.613 300.858 205.054C301.036 204.598 301.214 204.142 301.393 203.686C301.506 203.397 301.619 203.108 301.732 202.819C301.813 202.611 301.813 202.611 301.896 202.4C302.164 201.713 302.431 201.027 302.696 200.339C302.747 200.208 302.797 200.076 302.85 199.94C302.945 199.692 303.041 199.443 303.136 199.194C303.455 198.368 303.455 198.368 303.629 198.193C303.874 198.18 304.12 198.177 304.365 198.178C304.513 198.179 304.661 198.179 304.814 198.18C304.97 198.181 305.126 198.182 305.286 198.184C305.443 198.184 305.599 198.185 305.76 198.186C306.148 198.188 306.536 198.19 306.924 198.193C306.144 200.324 305.295 202.425 304.443 204.527C304.296 204.889 304.15 205.251 304.004 205.613C303.635 206.524 303.266 207.434 302.897 208.345C302.353 209.687 301.81 211.029 301.266 212.371C301.212 212.506 301.157 212.641 301.101 212.779C300.432 214.432 299.764 216.086 299.101 217.741C298.984 218.032 298.868 218.323 298.751 218.613C298.431 219.414 298.114 220.215 297.812 221.023C297.358 222.238 296.915 223.367 296.099 224.392C296.036 224.484 295.973 224.576 295.908 224.67C294.834 226.116 292.929 227.048 291.236 227.53C291.13 227.561 291.024 227.591 290.916 227.623C290.582 227.692 290.282 227.702 289.941 227.697C289.65 227.692 289.65 227.692 289.353 227.687C289.273 227.39 289.195 227.092 289.118 226.795C289.074 226.629 289.03 226.463 288.985 226.293C288.892 225.85 288.862 225.47 288.882 225.02C289.045 224.972 289.208 224.925 289.376 224.876C291.498 224.244 293.519 223.588 294.687 221.57C295.165 220.609 295.322 219.706 294.979 218.682C294.896 218.485 294.812 218.288 294.726 218.092C294.68 217.984 294.634 217.876 294.587 217.765C294.488 217.53 294.387 217.297 294.287 217.063C294.069 216.558 293.855 216.052 293.64 215.545C293.528 215.28 293.416 215.016 293.304 214.751C292.74 213.421 292.197 212.083 291.657 210.744C291.464 210.265 291.27 209.785 291.076 209.306C291.027 209.184 290.978 209.062 290.927 208.936C290.156 207.031 289.374 205.129 288.594 203.226C288.322 202.561 288.049 201.895 287.778 201.229C287.678 200.985 287.579 200.741 287.479 200.497C287.343 200.165 287.208 199.833 287.074 199.501C286.999 199.316 286.923 199.13 286.845 198.939C286.686 198.507 286.686 198.507 286.686 198.193Z" fill="#FFF9DB"/>
<path d="M531.096 197.811C531.344 197.813 531.344 197.813 531.597 197.815C532.782 197.84 533.803 197.963 534.871 198.507C535.008 198.574 535.145 198.64 535.286 198.709C536.887 199.572 537.898 200.874 538.479 202.586C538.755 203.585 538.837 204.522 538.829 205.555C538.829 205.704 538.829 205.853 538.829 206.006C538.829 206.492 538.826 206.979 538.824 207.465C538.823 207.804 538.823 208.143 538.822 208.482C538.821 209.371 538.818 210.26 538.815 211.149C538.811 212.058 538.81 212.967 538.808 213.875C538.805 215.655 538.799 217.435 538.793 219.216C537.809 219.216 536.826 219.216 535.812 219.216C535.81 218.798 535.808 218.38 535.805 217.949C535.797 216.563 535.787 215.177 535.775 213.79C535.768 212.951 535.762 212.111 535.758 211.271C535.754 210.459 535.747 209.647 535.74 208.836C535.737 208.527 535.735 208.219 535.734 207.91C535.793 204.894 535.793 204.894 534.549 202.234C533.182 201.002 531.684 200.761 529.917 200.795C528.608 200.873 527.52 201.581 526.556 202.429C526.309 202.729 526.07 203.037 525.841 203.351C525.724 203.509 525.607 203.667 525.487 203.83C525.374 203.989 525.261 204.148 525.144 204.312C525.036 204.449 524.927 204.585 524.815 204.726C524.435 205.397 524.427 205.885 524.431 206.642C524.43 206.778 524.428 206.914 524.426 207.055C524.422 207.503 524.421 207.951 524.421 208.399C524.419 208.711 524.416 209.023 524.413 209.335C524.407 210.153 524.403 210.972 524.401 211.79C524.398 212.626 524.391 213.462 524.385 214.298C524.373 215.937 524.366 217.577 524.36 219.216C523.376 219.216 522.393 219.216 521.379 219.216C521.379 212.278 521.379 205.341 521.379 198.194C522.363 198.194 523.347 198.194 524.36 198.194C524.412 198.97 524.464 199.747 524.517 200.547C524.659 200.388 524.802 200.23 524.948 200.066C526.655 198.37 528.748 197.788 531.096 197.811Z" fill="#FFF9DB"/>
<path d="M399.63 197.811C399.878 197.813 399.878 197.813 400.131 197.815C401.316 197.84 402.337 197.963 403.405 198.507C403.542 198.574 403.679 198.64 403.821 198.709C405.421 199.572 406.432 200.874 407.013 202.586C407.29 203.585 407.371 204.522 407.363 205.555C407.363 205.704 407.363 205.853 407.363 206.006C407.363 206.492 407.36 206.979 407.358 207.465C407.357 207.804 407.357 208.143 407.357 208.482C407.355 209.371 407.352 210.26 407.349 211.149C407.346 212.058 407.344 212.967 407.343 213.875C407.339 215.655 407.334 217.435 407.327 219.216C406.344 219.216 405.36 219.216 404.347 219.216C404.344 218.798 404.342 218.38 404.34 217.949C404.332 216.563 404.321 215.177 404.31 213.79C404.303 212.951 404.296 212.111 404.292 211.271C404.288 210.459 404.282 209.647 404.274 208.836C404.271 208.527 404.269 208.219 404.268 207.91C404.327 204.894 404.327 204.894 403.083 202.234C401.716 201.002 400.219 200.761 398.451 200.795C397.142 200.873 396.054 201.581 395.091 202.429C394.843 202.729 394.604 203.037 394.375 203.351C394.258 203.509 394.141 203.667 394.021 203.83C393.908 203.989 393.795 204.148 393.679 204.312C393.57 204.449 393.461 204.585 393.349 204.726C392.97 205.397 392.961 205.885 392.965 206.642C392.964 206.778 392.962 206.914 392.961 207.055C392.956 207.503 392.956 207.951 392.956 208.399C392.953 208.711 392.951 209.023 392.948 209.335C392.941 210.153 392.938 210.972 392.935 211.79C392.932 212.626 392.926 213.462 392.919 214.298C392.908 215.937 392.9 217.577 392.894 219.216C391.911 219.216 390.927 219.216 389.914 219.216C389.914 212.278 389.914 205.341 389.914 198.194C390.897 198.194 391.881 198.194 392.894 198.194C392.946 198.97 392.998 199.747 393.051 200.547C393.193 200.388 393.336 200.23 393.483 200.066C395.19 198.37 397.282 197.788 399.63 197.811Z" fill="#FFF9DB"/>
<path d="M378.608 197.811C378.856 197.813 378.856 197.813 379.109 197.815C380.294 197.84 381.315 197.963 382.383 198.507C382.52 198.574 382.657 198.64 382.799 198.709C384.399 199.572 385.41 200.874 385.991 202.586C386.268 203.585 386.349 204.522 386.341 205.555C386.341 205.704 386.341 205.853 386.341 206.006C386.341 206.492 386.338 206.979 386.336 207.465C386.335 207.804 386.335 208.143 386.335 208.482C386.333 209.371 386.33 210.26 386.327 211.149C386.324 212.058 386.322 212.967 386.321 213.875C386.317 215.655 386.312 217.435 386.305 219.216C385.322 219.216 384.338 219.216 383.324 219.216C383.322 218.798 383.32 218.38 383.318 217.949C383.31 216.563 383.299 215.177 383.287 213.79C383.281 212.951 383.274 212.111 383.27 211.271C383.266 210.459 383.26 209.647 383.252 208.836C383.249 208.527 383.247 208.219 383.246 207.91C383.305 204.894 383.305 204.894 382.061 202.234C380.694 201.002 379.197 200.761 377.429 200.795C376.12 200.873 375.032 201.581 374.069 202.429C373.821 202.729 373.582 203.037 373.353 203.351C373.236 203.509 373.119 203.667 372.999 203.83C372.886 203.989 372.773 204.148 372.657 204.312C372.548 204.449 372.439 204.585 372.327 204.726C371.948 205.397 371.939 205.885 371.943 206.642C371.942 206.778 371.94 206.914 371.939 207.055C371.934 207.503 371.934 207.951 371.933 208.399C371.931 208.711 371.929 209.023 371.926 209.335C371.919 210.153 371.916 210.972 371.913 211.79C371.91 212.626 371.904 213.462 371.897 214.298C371.886 215.937 371.878 217.577 371.872 219.216C370.889 219.216 369.905 219.216 368.891 219.216C368.891 212.278 368.891 205.341 368.891 198.194C369.875 198.194 370.859 198.194 371.872 198.194C371.924 198.97 371.976 199.747 372.029 200.547C372.171 200.388 372.314 200.23 372.461 200.066C374.168 198.37 376.26 197.788 378.608 197.811Z" fill="#FFF9DB"/>
<path d="M558.717 189.879C564.515 189.879 570.313 189.879 576.287 189.879C576.287 190.966 576.287 192.053 576.287 193.173C573.958 193.173 571.628 193.173 569.228 193.173C569.228 201.767 569.228 210.361 569.228 219.216C568.141 219.216 567.053 219.216 565.933 219.216C565.933 210.622 565.933 202.028 565.933 193.173C563.552 193.173 561.17 193.173 558.717 193.173C558.717 192.086 558.717 190.999 558.717 189.879Z" fill="#FFF9DB"/>
<path d="M433.84 198.352C434.927 198.352 436.014 198.352 437.134 198.352C437.927 200.035 438.608 201.762 439.3 203.489C439.432 203.82 439.565 204.15 439.697 204.481C439.973 205.17 440.249 205.86 440.525 206.549C440.879 207.434 441.234 208.318 441.589 209.202C441.862 209.883 442.135 210.564 442.407 211.245C442.538 211.571 442.669 211.898 442.8 212.224C442.983 212.678 443.164 213.132 443.346 213.587C443.4 213.722 443.455 213.857 443.511 213.996C443.56 214.119 443.609 214.243 443.659 214.37C443.702 214.477 443.745 214.585 443.789 214.695C443.88 214.981 443.88 214.981 443.88 215.452C443.984 215.452 444.087 215.452 444.194 215.452C444.213 215.34 444.233 215.228 444.252 215.112C444.354 214.655 444.498 214.253 444.672 213.819C444.739 213.651 444.806 213.484 444.875 213.311C444.948 213.131 445.021 212.95 445.096 212.763C445.172 212.573 445.249 212.383 445.327 212.187C445.533 211.672 445.741 211.157 445.948 210.643C446.162 210.11 446.376 209.578 446.59 209.045C447.058 207.88 447.527 206.714 447.997 205.549C448.112 205.266 448.226 204.982 448.34 204.698C448.785 203.596 449.229 202.493 449.675 201.391C449.76 201.182 449.76 201.182 449.846 200.968C450.003 200.581 450.16 200.194 450.317 199.806C450.362 199.694 450.408 199.581 450.455 199.465C450.765 198.702 450.765 198.702 450.94 198.352C451.975 198.352 453.011 198.352 454.078 198.352C452.907 201.304 451.704 204.244 450.496 207.181C450.112 208.116 449.728 209.05 449.345 209.985C448.776 211.375 448.206 212.764 447.635 214.153C447.489 214.508 447.344 214.863 447.198 215.217C446.974 215.764 446.749 216.31 446.524 216.856C446.442 217.055 446.36 217.255 446.279 217.454C446.168 217.724 446.056 217.994 445.945 218.264C445.852 218.491 445.852 218.491 445.757 218.721C445.606 219.06 445.606 219.06 445.449 219.217C445.216 219.23 444.981 219.233 444.747 219.232C444.606 219.231 444.465 219.231 444.32 219.23C444.172 219.229 444.023 219.228 443.871 219.226C443.722 219.226 443.573 219.225 443.419 219.224C443.05 219.222 442.681 219.22 442.312 219.217C442.249 219.065 442.187 218.913 442.123 218.757C440.914 215.803 439.701 212.85 438.478 209.902C438.423 209.771 438.369 209.64 438.313 209.505C437.978 208.699 437.644 207.892 437.309 207.086C436.822 205.914 436.336 204.743 435.85 203.571C435.678 203.158 435.507 202.745 435.335 202.332C435.045 201.633 434.756 200.934 434.467 200.234C434.397 200.063 434.326 199.892 434.253 199.716C434.196 199.575 434.138 199.433 434.078 199.287C434.031 199.172 433.984 199.056 433.935 198.937C433.84 198.665 433.84 198.665 433.84 198.352Z" fill="#FFF9DB"/>
<path d="M643.589 193.332C644.573 193.332 645.556 193.332 646.57 193.332C646.57 194.937 646.57 196.542 646.57 198.195C647.76 198.195 648.951 198.195 650.178 198.195C650.178 199.075 650.178 199.956 650.178 200.862C648.987 200.862 647.797 200.862 646.57 200.862C646.58 202.399 646.592 203.936 646.607 205.474C646.614 206.187 646.62 206.901 646.624 207.615C646.628 208.306 646.635 208.997 646.642 209.687C646.645 209.949 646.647 210.211 646.648 210.473C646.624 213.663 646.624 213.663 648.099 216.364C648.966 216.822 649.878 216.724 650.806 216.55C651.042 217.461 651.154 218.276 651.119 219.217C649.201 219.57 647.493 219.461 645.815 218.403C644.401 217.287 643.827 215.45 643.589 213.726C643.576 213.296 643.569 212.869 643.571 212.439C643.571 212.313 643.571 212.188 643.571 212.058C643.571 211.646 643.572 211.233 643.574 210.821C643.574 210.533 643.574 210.246 643.574 209.959C643.575 209.206 643.577 208.452 643.578 207.699C643.58 206.929 643.581 206.159 643.581 205.389C643.583 203.88 643.586 202.371 643.589 200.862C642.968 200.862 642.347 200.862 641.706 200.862C641.706 199.982 641.706 199.102 641.706 198.195C642.328 198.195 642.949 198.195 643.589 198.195C643.589 196.59 643.589 194.986 643.589 193.332Z" fill="#FFF9DB"/>
<path d="M479.963 193.332C480.946 193.332 481.93 193.332 482.944 193.332C482.944 194.937 482.944 196.542 482.944 198.195C484.134 198.195 485.325 198.195 486.552 198.195C486.552 199.075 486.552 199.956 486.552 200.862C485.361 200.862 484.17 200.862 482.944 200.862C482.953 202.399 482.965 203.936 482.981 205.474C482.988 206.187 482.994 206.901 482.998 207.615C483.002 208.306 483.008 208.997 483.016 209.687C483.019 209.949 483.021 210.211 483.022 210.473C482.998 213.663 482.998 213.663 484.473 216.364C485.34 216.822 486.252 216.724 487.179 216.55C487.416 217.461 487.527 218.276 487.493 219.217C485.575 219.57 483.866 219.461 482.189 218.403C480.775 217.287 480.2 215.45 479.963 213.726C479.949 213.296 479.943 212.869 479.945 212.439C479.945 212.313 479.945 212.188 479.945 212.058C479.945 211.646 479.946 211.233 479.948 210.821C479.948 210.533 479.948 210.246 479.948 209.959C479.949 209.206 479.95 208.452 479.952 207.699C479.954 206.929 479.954 206.159 479.955 205.389C479.957 203.88 479.96 202.371 479.963 200.862C479.342 200.862 478.72 200.862 478.08 200.862C478.08 199.982 478.08 199.102 478.08 198.195C478.702 198.195 479.323 198.195 479.963 198.195C479.963 196.59 479.963 194.986 479.963 193.332Z" fill="#FFF9DB"/>
<path d="M275.548 193.332C276.531 193.332 277.515 193.332 278.528 193.332C278.528 194.937 278.528 196.542 278.528 198.195C279.719 198.195 280.91 198.195 282.137 198.195C282.137 199.075 282.137 199.956 282.137 200.862C280.946 200.862 279.755 200.862 278.528 200.862C278.538 202.399 278.55 203.936 278.565 205.474C278.572 206.187 278.578 206.901 278.583 207.615C278.587 208.306 278.593 208.997 278.601 209.687C278.604 209.949 278.605 210.211 278.606 210.473C278.583 213.663 278.583 213.663 280.058 216.364C280.925 216.822 281.837 216.724 282.764 216.55C283 217.461 283.112 218.276 283.078 219.217C281.16 219.57 279.451 219.461 277.773 218.403C276.359 217.287 275.785 215.45 275.548 213.726C275.534 213.296 275.528 212.869 275.53 212.439C275.53 212.313 275.53 212.188 275.53 212.058C275.53 211.646 275.531 211.233 275.532 210.821C275.533 210.533 275.533 210.246 275.533 209.959C275.534 209.206 275.535 208.452 275.537 207.699C275.538 206.929 275.539 206.159 275.54 205.389C275.542 203.88 275.544 202.371 275.548 200.862C274.926 200.862 274.305 200.862 273.665 200.862C273.665 199.982 273.665 199.102 273.665 198.195C274.286 198.195 274.908 198.195 275.548 198.195C275.548 196.59 275.548 194.986 275.548 193.332Z" fill="#FFF9DB"/>
<path d="M707.861 197.853C708.036 197.853 708.211 197.853 708.391 197.853C709.143 197.857 709.841 197.871 710.577 198.039C710.492 199.088 710.281 200.021 709.95 201.02C709.681 200.983 709.681 200.983 709.408 200.946C707.416 200.7 705.715 200.638 703.988 201.804C703.82 201.917 703.652 202.031 703.478 202.147C702.831 202.809 702.314 203.552 701.792 204.314C701.684 204.45 701.576 204.586 701.464 204.726C701.083 205.399 701.074 205.885 701.079 206.644C701.077 206.78 701.075 206.917 701.074 207.057C701.069 207.505 701.069 207.953 701.069 208.402C701.066 208.713 701.064 209.025 701.061 209.337C701.054 210.155 701.051 210.974 701.048 211.792C701.045 212.629 701.039 213.465 701.032 214.301C701.021 215.94 701.013 217.579 701.007 219.218C700.024 219.218 699.04 219.218 698.027 219.218C698.027 212.281 698.027 205.343 698.027 198.196C699.01 198.196 699.994 198.196 701.007 198.196C701.059 198.972 701.111 199.749 701.164 200.549C701.384 200.335 701.604 200.122 701.831 199.902C703.637 198.277 705.499 197.826 707.861 197.853Z" fill="#FFF9DB"/>
<path d="M260.124 197.853C260.299 197.853 260.474 197.853 260.654 197.853C261.407 197.857 262.104 197.871 262.84 198.039C262.756 199.088 262.544 200.021 262.213 201.02C261.945 200.983 261.945 200.983 261.671 200.946C259.679 200.7 257.978 200.638 256.251 201.804C256.083 201.917 255.915 202.031 255.742 202.147C255.095 202.809 254.577 203.552 254.055 204.314C253.947 204.45 253.839 204.586 253.728 204.726C253.346 205.399 253.337 205.885 253.342 206.644C253.34 206.78 253.339 206.917 253.337 207.057C253.332 207.505 253.332 207.953 253.332 208.402C253.33 208.713 253.327 209.025 253.324 209.337C253.317 210.155 253.314 210.974 253.312 211.792C253.309 212.629 253.302 213.465 253.296 214.301C253.284 215.94 253.276 217.579 253.271 219.218C252.287 219.218 251.303 219.218 250.29 219.218C250.29 212.281 250.29 205.343 250.29 198.196C251.274 198.196 252.257 198.196 253.271 198.196C253.322 198.972 253.374 199.749 253.428 200.549C253.648 200.335 253.868 200.122 254.094 199.902C255.9 198.277 257.762 197.826 260.124 197.853Z" fill="#FFF9DB"/>
<path d="M362.146 189.879C363.181 189.879 364.217 189.879 365.283 189.879C365.283 199.56 365.283 209.241 365.283 219.216C364.248 219.216 363.212 219.216 362.146 219.216C362.146 209.534 362.146 199.853 362.146 189.879Z" fill="#FFF9DB"/>
<path d="M223.15 189.879C224.133 189.879 225.117 189.879 226.13 189.879C226.13 199.56 226.13 209.241 226.13 219.216C225.147 219.216 224.163 219.216 223.15 219.216C223.15 209.534 223.15 199.853 223.15 189.879Z" fill="#FFF9DB"/>
<path d="M111.058 12.5182C111.222 12.5148 111.385 12.5114 111.554 12.5078C113.03 12.7855 114.056 14.0469 115.071 15.0691C115.245 15.2419 115.418 15.4147 115.592 15.5874C116.067 16.0603 116.54 16.5347 117.013 17.0094C117.525 17.5217 118.037 18.0327 118.55 18.5439C119.553 19.5446 120.554 20.5467 121.555 21.5492C122.369 22.3638 123.183 23.178 123.997 23.9918C124.113 24.1077 124.229 24.2236 124.349 24.3429C124.584 24.5783 124.82 24.8137 125.055 25.0491C127.263 27.2556 129.469 29.4635 131.675 31.6719C133.568 33.5671 135.463 35.461 137.358 37.3539C139.559 39.5525 141.759 41.7518 143.958 43.9523C144.193 44.1869 144.427 44.4214 144.661 44.656C144.777 44.7714 144.892 44.8869 145.011 45.0058C145.824 45.8193 146.638 46.6323 147.452 47.4451C148.443 48.4353 149.434 49.4263 150.423 50.4184C150.928 50.9246 151.434 51.4304 151.94 51.9353C152.404 52.3973 152.866 52.8604 153.327 53.3244C153.495 53.4921 153.662 53.6595 153.83 53.8264C154.058 54.0532 154.285 54.2815 154.512 54.5101C154.638 54.6366 154.765 54.7631 154.895 54.8934C155.513 55.6236 155.758 56.2678 155.76 57.2193C155.763 57.3856 155.766 57.5518 155.769 57.7231C155.54 59.2975 154.406 60.2607 153.331 61.3274C153.15 61.509 152.969 61.6907 152.789 61.8726C152.294 62.3705 151.797 62.8665 151.299 63.3621C150.763 63.8975 150.228 64.4346 149.693 64.9716C148.646 66.0224 147.597 67.0715 146.547 68.12C145.694 68.9717 144.842 69.8241 143.99 70.6768C143.869 70.7982 143.748 70.9195 143.623 71.0445C143.377 71.2911 143.131 71.5376 142.884 71.7841C140.576 74.095 138.266 76.4038 135.955 78.7121C133.839 80.8259 131.725 82.942 129.612 85.0592C127.444 87.2322 125.274 89.4037 123.103 91.5737C122.857 91.8188 122.612 92.064 122.367 92.3092C122.246 92.4298 122.125 92.5505 122.001 92.6748C121.149 93.5265 120.298 94.3793 119.447 95.2323C118.411 96.2709 117.374 97.308 116.335 98.3433C115.805 98.872 115.275 99.4013 114.747 99.9323C114.264 100.418 113.78 100.901 113.294 101.383C113.117 101.559 112.942 101.735 112.767 101.911C112.531 102.15 112.292 102.387 112.053 102.623C111.92 102.755 111.788 102.887 111.652 103.024C111.294 103.283 111.294 103.283 110.982 103.292C110.536 103.058 110.232 102.752 109.876 102.396C109.798 102.319 109.72 102.242 109.64 102.162C109.378 101.902 109.117 101.64 108.857 101.379C108.668 101.191 108.479 101.003 108.29 100.815C107.769 100.297 107.25 99.7775 106.732 99.2579C106.172 98.6983 105.612 98.14 105.051 97.5816C103.954 96.4869 102.857 95.3909 101.761 94.2945C100.87 93.4037 99.9792 92.5134 99.088 91.6234C98.8316 91.3673 98.5753 91.1113 98.3189 90.8553C98.1913 90.7279 98.0638 90.6005 97.9323 90.4692C95.518 88.0578 93.1052 85.6448 90.6928 83.2314C88.4834 81.0211 86.272 78.8129 84.0595 76.6057C81.7901 74.3416 79.5222 72.076 77.2558 69.8089C75.9824 68.5352 74.7084 67.262 73.4329 65.9904C72.3473 64.9081 71.2631 63.8245 70.1806 62.739C69.6279 62.1848 69.0744 61.6312 68.5193 61.0793C68.0119 60.5748 67.5062 60.0685 67.002 59.5607C66.8186 59.3766 66.6345 59.1932 66.4497 59.0106C66.2 58.7635 65.9527 58.5141 65.706 58.264C65.4984 58.0565 65.4984 58.0565 65.2866 57.8448C65.0141 57.4743 65.0141 57.4743 65.0057 57.1584C65.2337 56.7285 65.5237 56.4348 65.8679 56.0902C65.9413 56.016 66.0148 55.9418 66.0904 55.8654C66.3382 55.6157 66.5877 55.3678 66.8371 55.1198C67.0163 54.9399 67.1955 54.7599 67.3745 54.5798C67.8679 54.0841 68.3628 53.5899 68.8579 53.096C69.3913 52.5634 69.9232 52.0295 70.4554 51.4957C71.4987 50.4497 72.5433 49.405 73.5883 48.3607C74.4377 47.512 75.2867 46.6628 76.1353 45.8133C76.256 45.6925 76.3767 45.5717 76.501 45.4473C76.7461 45.202 76.9912 44.9566 77.2363 44.7113C79.5368 42.4086 81.8388 40.1075 84.1412 37.8068C86.2479 35.7017 88.3528 33.5948 90.4568 31.4871C92.6162 29.3238 94.7769 27.1616 96.9388 25.0008C98.1528 23.7872 99.3665 22.5733 100.579 21.3581C101.611 20.3233 102.645 19.2897 103.68 18.2574C104.208 17.7307 104.735 17.2035 105.262 16.6749C105.744 16.1909 106.227 15.7083 106.711 15.2269C106.886 15.0526 107.061 14.8778 107.234 14.7024C109.402 12.5162 109.402 12.5162 111.058 12.5182ZM107.134 15.2978C106.953 15.4785 106.772 15.659 106.591 15.8395C106.096 16.3339 105.602 16.8298 105.108 17.326C104.574 17.8614 104.04 18.3955 103.505 18.9297C102.58 19.8549 101.655 20.781 100.731 21.7076C99.3951 23.0474 98.0578 24.3858 96.7203 25.724C94.5501 27.8952 92.381 30.0674 90.2126 32.2403C88.1064 34.3508 85.9997 36.4609 83.8923 38.5702C83.7624 38.7003 83.6324 38.8304 83.4985 38.9644C82.8466 39.6169 82.1947 40.2694 81.5428 40.9219C76.1363 46.3332 70.7315 51.7463 65.3279 57.1605C65.5732 57.7492 65.9372 58.1226 66.3858 58.5709C66.5008 58.6864 66.5008 58.6864 66.6181 58.8042C66.8762 59.0632 67.1354 59.3209 67.3946 59.5788C67.5813 59.7656 67.768 59.9525 67.9545 60.1395C68.4683 60.6539 68.983 61.1674 69.4978 61.6807C70.0525 62.234 70.6064 62.7883 71.1603 63.3425C72.1204 64.3028 73.0811 65.2625 74.0422 66.2218C75.4318 67.6089 76.8205 68.9968 78.2091 70.3849C80.4617 72.6369 82.7151 74.8882 84.9689 77.139C87.1586 79.3258 89.3479 81.5129 91.5368 83.7004C91.6716 83.8352 91.8065 83.97 91.9455 84.1089C92.6221 84.7851 93.2987 85.4613 93.9753 86.1375C99.5902 91.7492 105.206 97.3598 110.823 102.97C111.4 102.727 111.767 102.379 112.208 101.939C112.319 101.829 112.319 101.829 112.433 101.716C112.682 101.468 112.93 101.219 113.179 100.97C113.359 100.79 113.539 100.611 113.719 100.432C114.215 99.9379 114.709 99.4432 115.204 98.9484C115.737 98.4151 116.271 97.8828 116.805 97.3503C117.851 96.3066 118.897 95.2621 119.942 94.2173C120.791 93.3681 121.641 92.5192 122.49 91.6705C124.898 89.2652 127.306 86.8592 129.712 84.4525C129.842 84.3227 129.972 84.1928 130.106 84.0591C130.3 83.8642 130.3 83.8642 130.499 83.6653C132.606 81.5587 134.714 79.4537 136.822 77.3494C138.987 75.1898 141.15 73.029 143.311 70.8669C144.526 69.6527 145.74 68.439 146.956 67.2265C147.991 66.1942 149.025 65.1608 150.058 64.126C150.585 63.598 151.112 63.0705 151.641 62.5443C152.125 62.0627 152.608 61.5796 153.09 61.0953C153.264 60.9204 153.439 60.7459 153.615 60.5721C153.853 60.3356 154.09 60.0973 154.326 59.8584C154.458 59.7265 154.59 59.5946 154.726 59.4588C155.323 58.7228 155.623 57.9502 155.578 56.9987C155.322 55.1825 153.504 53.8524 152.284 52.6344C152.115 52.4648 151.945 52.2952 151.776 52.1255C151.314 51.6621 150.851 51.1991 150.388 50.7362C149.887 50.2359 149.387 49.7352 148.888 49.2345C147.909 48.2549 146.931 47.2758 145.952 46.2969C145.156 45.5014 144.361 44.7058 143.566 43.9101C141.311 41.6537 139.055 39.3977 136.8 37.142C136.678 37.0205 136.557 36.8991 136.432 36.7739C136.249 36.5915 136.249 36.5915 136.063 36.4054C134.089 34.4317 132.116 32.4573 130.144 30.4826C128.118 28.4544 126.091 26.4268 124.064 24.3999C122.927 23.262 121.789 22.124 120.652 20.9853C119.684 20.0165 118.717 19.0482 117.748 18.0807C117.254 17.5869 116.76 17.093 116.266 16.5983C115.815 16.1456 115.363 15.6937 114.91 15.2424C114.746 15.0789 114.583 14.915 114.42 14.7509C114.198 14.5282 113.975 14.3064 113.752 14.0847C113.567 13.8995 113.567 13.8995 113.378 13.7104C112.628 13.042 111.934 12.751 110.941 12.7045C110.775 12.693 110.775 12.693 110.605 12.6812C109.169 12.9692 108.122 14.3017 107.134 15.2978Z" fill="#F8F2EE"/>
<path d="M111.139 121.941C111.569 122.169 111.863 122.459 112.207 122.804C112.281 122.877 112.356 122.95 112.432 123.026C112.682 123.274 112.93 123.523 113.178 123.773C113.358 123.952 113.538 124.131 113.718 124.31C114.213 124.804 114.708 125.298 115.202 125.794C115.734 126.327 116.268 126.859 116.802 127.391C117.848 128.434 118.892 129.479 119.937 130.524C120.785 131.373 121.635 132.222 122.484 133.071C122.605 133.192 122.726 133.312 122.85 133.437C123.096 133.682 123.341 133.927 123.586 134.172C125.889 136.472 128.19 138.774 130.491 141.077C132.596 143.184 134.703 145.288 136.81 147.392C138.974 149.552 141.136 151.713 143.297 153.874C144.51 155.089 145.724 156.302 146.939 157.515C147.974 158.547 149.008 159.581 150.04 160.616C150.567 161.144 151.094 161.671 151.623 162.197C152.107 162.679 152.589 163.163 153.071 163.647C153.245 163.822 153.42 163.996 153.595 164.17C155.543 166.101 155.543 166.101 155.78 167.499C155.78 167.662 155.779 167.826 155.779 167.994C155.783 168.158 155.786 168.321 155.79 168.489C155.512 169.966 154.251 170.992 153.228 172.007C153.056 172.18 152.883 172.354 152.71 172.527C152.237 173.002 151.763 173.476 151.288 173.949C150.776 174.46 150.265 174.973 149.754 175.485C148.753 176.488 147.751 177.49 146.748 178.491C145.934 179.304 145.12 180.118 144.306 180.933C144.19 181.049 144.074 181.165 143.955 181.284C143.719 181.52 143.484 181.755 143.248 181.991C141.042 184.199 138.834 186.405 136.626 188.611C134.73 190.504 132.837 192.398 130.944 194.293C128.745 196.494 126.546 198.695 124.345 200.894C124.111 201.128 123.876 201.363 123.641 201.597C123.526 201.712 123.411 201.828 123.292 201.947C122.478 202.76 121.665 203.573 120.852 204.387C119.862 205.379 118.871 206.369 117.879 207.359C117.373 207.864 116.867 208.369 116.362 208.876C115.9 209.339 115.437 209.802 114.973 210.263C114.805 210.43 114.638 210.598 114.471 210.766C114.244 210.994 114.016 211.221 113.787 211.447C113.661 211.574 113.534 211.7 113.404 211.83C112.674 212.449 112.03 212.694 111.078 212.695C110.912 212.698 110.746 212.701 110.574 212.704C109 212.476 108.037 211.341 106.97 210.266C106.789 210.085 106.607 209.905 106.425 209.724C105.927 209.229 105.431 208.732 104.935 208.235C104.4 207.699 103.863 207.164 103.326 206.629C102.275 205.582 101.226 204.533 100.178 203.483C99.3258 202.63 98.4734 201.778 97.6207 200.926C97.4993 200.805 97.378 200.684 97.2529 200.559C97.0064 200.313 96.7599 200.066 96.5134 199.82C94.2025 197.512 91.8937 195.202 89.5854 192.891C87.4716 190.775 85.3555 188.661 83.2383 186.548C81.0653 184.38 78.8937 182.21 76.7238 180.038C76.4786 179.793 76.2335 179.548 75.9883 179.303C75.8677 179.182 75.747 179.061 75.6227 178.937C74.7709 178.085 73.9182 177.233 73.0651 176.383C72.0266 175.347 70.9895 174.31 69.9541 173.271C69.4255 172.74 68.8962 172.211 68.3652 171.683C67.8799 171.2 67.3963 170.715 66.9142 170.229C66.7389 170.053 66.5628 169.878 66.3861 169.703C66.1472 169.467 65.9108 169.228 65.6749 168.989C65.5425 168.856 65.4102 168.724 65.2739 168.587C65.0141 168.229 65.0141 168.229 65.0056 167.918C65.2394 167.471 65.5454 167.168 65.9015 166.811C65.9786 166.733 66.0557 166.656 66.1351 166.575C66.3952 166.313 66.657 166.053 66.9188 165.792C67.1069 165.603 67.2949 165.414 67.4828 165.225C68.0006 164.705 68.52 164.186 69.0396 163.667C69.5992 163.108 70.1575 162.548 70.7159 161.987C71.8106 160.889 72.9065 159.793 74.003 158.696C74.8937 157.806 75.7841 156.915 76.6741 156.024C76.9301 155.767 77.1862 155.511 77.4422 155.255C77.5696 155.127 77.697 154.999 77.8283 154.868C80.2397 152.454 82.6526 150.041 85.0661 147.629C87.2763 145.419 89.4845 143.208 91.6918 140.995C93.9559 138.726 96.2215 136.458 98.4886 134.191C99.7623 132.918 101.035 131.644 102.307 130.369C103.389 129.283 104.473 128.199 105.558 127.116C106.113 126.564 106.666 126.01 107.218 125.455C107.723 124.948 108.229 124.442 108.737 123.938C108.921 123.754 109.104 123.57 109.287 123.385C109.534 123.136 109.783 122.888 110.033 122.642C110.241 122.434 110.241 122.434 110.453 122.222C110.823 121.95 110.823 121.95 111.139 121.941ZM110.493 122.555C110.354 122.693 110.216 122.832 110.074 122.974C109.997 123.051 109.92 123.128 109.84 123.207C109.579 123.467 109.319 123.729 109.058 123.991C108.87 124.178 108.683 124.366 108.495 124.554C107.976 125.072 107.458 125.591 106.94 126.11C106.383 126.669 105.825 127.227 105.266 127.785C104.299 128.752 103.331 129.72 102.364 130.689C100.967 132.09 99.5677 133.489 98.1687 134.889C95.8991 137.159 93.6303 139.43 91.3618 141.701C89.1577 143.908 86.9533 146.115 84.7484 148.321C84.6125 148.457 84.4767 148.593 84.3368 148.733C83.6555 149.415 82.9742 150.096 82.2929 150.778C76.6369 156.437 70.982 162.098 65.3279 167.759C65.5704 168.335 65.9189 168.703 66.3587 169.143C66.4693 169.255 66.4693 169.255 66.5821 169.368C66.8303 169.618 67.0795 169.866 67.3288 170.114C67.5083 170.294 67.6878 170.475 67.8672 170.655C68.3613 171.15 68.8563 171.645 69.3514 172.139C69.885 172.673 70.4177 173.207 70.9504 173.741C71.9947 174.787 73.0398 175.832 74.0852 176.877C74.9348 177.727 75.784 178.576 76.6331 179.426C76.7538 179.547 76.8746 179.668 76.999 179.792C77.2442 180.037 77.4894 180.283 77.7347 180.528C80.036 182.831 82.3383 185.133 84.6409 187.435C86.7484 189.542 88.8546 191.65 90.9601 193.758C93.121 195.922 95.2827 198.085 97.4453 200.247C98.6599 201.461 99.8742 202.676 101.088 203.892C102.121 204.926 103.154 205.961 104.189 206.994C104.717 207.521 105.245 208.048 105.772 208.577C106.254 209.061 106.737 209.543 107.221 210.025C107.396 210.2 107.571 210.375 107.745 210.55C107.982 210.789 108.22 211.025 108.458 211.262C108.656 211.46 108.656 211.46 108.858 211.662C109.495 212.204 110.117 212.537 110.96 212.538C111.083 212.541 111.206 212.544 111.332 212.548C112.811 212.281 113.746 211.205 114.756 210.185C114.93 210.012 115.103 209.84 115.277 209.668C115.752 209.195 116.225 208.721 116.697 208.247C117.208 207.734 117.72 207.224 118.233 206.714C119.235 205.714 120.236 204.712 121.237 203.71C122.05 202.896 122.863 202.082 123.677 201.268C123.851 201.095 123.851 201.095 124.029 200.917C124.264 200.682 124.499 200.447 124.735 200.212C126.942 198.006 129.148 195.798 131.353 193.59C133.244 191.696 135.138 189.803 137.032 187.911C139.232 185.714 141.432 183.516 143.63 181.317C143.864 181.082 144.098 180.848 144.333 180.613C144.448 180.498 144.563 180.382 144.682 180.263C145.495 179.45 146.308 178.638 147.121 177.826C148.113 176.836 149.103 175.846 150.092 174.853C150.596 174.347 151.101 173.842 151.608 173.337C152.071 172.876 152.534 172.412 152.995 171.948C153.161 171.78 153.329 171.613 153.497 171.447C154.893 170.071 154.893 170.071 155.623 168.279C155.623 168.159 155.623 168.039 155.622 167.916C155.626 167.796 155.629 167.676 155.633 167.553C155.294 166.107 154.016 165.076 153.002 164.07C152.821 163.889 152.641 163.708 152.461 163.527C151.967 163.031 151.472 162.537 150.976 162.043C150.441 161.51 149.908 160.975 149.374 160.441C148.33 159.395 147.284 158.35 146.238 157.305C145.02 156.09 143.803 154.873 142.587 153.656C140.417 151.486 138.246 149.317 136.074 147.148C133.966 145.042 131.858 142.936 129.751 140.828C127.457 138.533 125.163 136.239 122.868 133.946C122.623 133.702 122.379 133.457 122.135 133.213C122.014 133.093 121.894 132.973 121.77 132.849C120.921 132 120.072 131.151 119.223 130.302C118.19 129.269 117.156 128.236 116.122 127.203C115.594 126.676 115.066 126.149 114.538 125.621C114.056 125.139 113.574 124.657 113.091 124.176C112.915 124.001 112.74 123.826 112.565 123.65C112.329 123.413 112.092 123.177 111.855 122.941C111.657 122.743 111.657 122.743 111.455 122.542C111.014 122.156 110.932 122.168 110.493 122.555Z" fill="#F8F1EE"/>
<path d="M55.5992 66.7207C56.046 66.9546 56.3486 67.2612 56.7053 67.6183C56.822 67.7342 56.822 67.7342 56.941 67.8524C57.203 68.1132 57.4633 68.3756 57.7237 68.6381C57.9124 68.8266 58.1013 69.015 58.2902 69.2034C58.8104 69.7225 59.329 70.243 59.8475 70.7638C60.4063 71.3247 60.9666 71.8843 61.5266 72.444C62.4972 73.4143 63.4669 74.3855 64.436 75.3572C65.8372 76.7623 67.2397 78.166 68.6425 79.5694C70.9183 81.8462 73.193 84.1241 75.4671 86.4026C77.6765 88.6163 79.8864 90.8296 82.097 93.0421C82.2332 93.1785 82.3694 93.3148 82.5097 93.4552C83.193 94.1391 83.8762 94.823 84.5595 95.5068C90.2303 101.182 95.8993 106.86 101.567 112.538C101.321 113.128 100.955 113.504 100.506 113.954C100.429 114.032 100.352 114.109 100.273 114.189C100.014 114.45 99.7532 114.71 99.4928 114.969C99.3053 115.158 99.1178 115.346 98.9304 115.534C98.4143 116.053 97.8972 116.57 97.38 117.087C96.8227 117.645 96.2663 118.203 95.7098 118.762C94.4925 119.982 93.2741 121.202 92.0555 122.421C91.2952 123.182 90.5351 123.943 89.7751 124.705C87.6721 126.811 85.5689 128.916 83.4647 131.021C83.33 131.156 83.1953 131.29 83.0565 131.429C82.7835 131.702 82.5104 131.975 82.2374 132.249C82.034 132.452 82.034 132.452 81.8266 132.659C81.623 132.863 81.623 132.863 81.4153 133.071C79.2139 135.273 77.0143 137.477 74.8155 139.681C72.5599 141.943 70.3028 144.203 68.0442 146.462C66.7754 147.731 65.5071 149 64.2405 150.271C63.1625 151.353 62.0831 152.434 61.002 153.512C60.45 154.063 59.8987 154.615 59.349 155.168C58.8465 155.674 58.3422 156.178 57.8365 156.68C57.6532 156.863 57.4705 157.046 57.2886 157.23C57.0425 157.479 56.7941 157.726 56.545 157.972C56.4072 158.11 56.2695 158.247 56.1275 158.39C55.7582 158.661 55.7582 158.661 55.4427 158.67C55.0113 158.441 54.7169 158.149 54.3712 157.804C54.2967 157.73 54.2222 157.656 54.1455 157.58C53.8948 157.331 53.6458 157.081 53.3967 156.83C53.2161 156.65 53.0353 156.47 52.8545 156.29C52.3567 155.794 51.8604 155.297 51.3643 154.799C50.8295 154.264 50.2933 153.729 49.7573 153.194C48.707 152.146 47.6579 151.097 46.6093 150.047C45.7571 149.193 44.9045 148.341 44.0515 147.488C43.9303 147.367 43.809 147.246 43.6841 147.121C43.4378 146.875 43.1915 146.629 42.9452 146.382C40.6335 144.072 38.3233 141.76 36.0136 139.448C34.031 137.463 32.0472 135.48 30.0625 133.497C27.7592 131.197 25.4566 128.895 23.1553 126.592C22.9099 126.347 22.6645 126.101 22.4192 125.856C22.2984 125.735 22.1777 125.614 22.0533 125.49C21.2018 124.638 20.3498 123.786 19.4976 122.935C18.459 121.898 17.4212 120.86 16.3845 119.821C15.8554 119.29 15.3259 118.76 14.7954 118.231C14.3099 117.747 13.8254 117.262 13.3419 116.776C13.1666 116.6 12.991 116.425 12.8149 116.25C12.5757 116.012 12.3381 115.773 12.1008 115.534C11.9683 115.401 11.8359 115.268 11.6994 115.132C11.0501 114.369 10.8208 113.709 10.8119 112.715C10.8047 112.444 10.8047 112.444 10.7972 112.167C11.0477 110.634 12.3677 109.582 13.4206 108.534C13.6008 108.353 13.781 108.172 13.961 107.991C14.4542 107.495 14.9489 107.001 15.4438 106.507C15.9779 105.973 16.5107 105.438 17.0437 104.903C18.0871 103.856 19.1318 102.811 20.177 101.766C21.0261 100.917 21.8748 100.068 22.7231 99.2184C22.9675 98.9737 23.2119 98.7289 23.4563 98.4842C23.578 98.3624 23.6996 98.2406 23.825 98.1151C26.1242 95.8129 28.425 93.5122 30.7263 91.212C32.8335 89.1056 34.9387 86.9972 37.043 84.8877C39.2029 82.7226 41.3642 80.5588 43.5271 78.3966C44.7418 77.1824 45.9558 75.9675 47.1683 74.7511C48.1997 73.7164 49.2326 72.683 50.2672 71.6513C50.7954 71.1246 51.3229 70.5972 51.8487 70.0681C52.3295 69.5845 52.8119 69.1027 53.2959 68.6224C53.4713 68.4476 53.646 68.2722 53.82 68.0961C54.0554 67.858 54.293 67.6225 54.5314 67.3875C54.6632 67.2556 54.7951 67.1238 54.9309 66.9879C55.2875 66.7292 55.2875 66.7292 55.5992 66.7207ZM54.7182 67.7292C54.6435 67.8034 54.5688 67.8776 54.4919 67.954C54.2389 68.2057 53.9871 68.4585 53.7352 68.7112C53.5534 68.8926 53.3715 69.0738 53.1896 69.2551C52.6876 69.7555 52.1865 70.2568 51.6857 70.7584C51.1462 71.2983 50.6058 71.8372 50.0655 72.3763C49.0063 73.4336 47.9479 74.4917 46.8899 75.5501C46.0301 76.4101 45.1701 77.2699 44.3098 78.1294C44.1876 78.2516 44.0654 78.3737 43.9395 78.4995C43.6912 78.7475 43.443 78.9956 43.1948 79.2437C40.864 81.5727 38.5342 83.9028 36.2048 86.2332C34.0722 88.3666 31.9382 90.4988 29.8037 92.6304C27.6141 94.8169 25.4254 97.0043 23.2377 99.1926C22.0085 100.422 20.7791 101.651 19.5487 102.879C18.5011 103.925 17.4543 104.972 16.4085 106.019C15.8747 106.554 15.3404 107.088 14.8052 107.622C14.3155 108.11 13.8269 108.599 13.3392 109.089C13.1622 109.266 12.9849 109.443 12.8071 109.62C12.566 109.859 12.3265 110.1 12.0872 110.341C11.9536 110.475 11.82 110.609 11.6823 110.746C11.0925 111.444 10.9813 112.082 11.0105 112.969C11.2052 114.842 13.1861 116.269 14.4383 117.518C14.5819 117.662 14.7254 117.806 14.8733 117.954C15.2622 118.344 15.6516 118.733 16.0411 119.122C16.4514 119.532 16.8612 119.942 17.2711 120.352C17.9588 121.04 18.6468 121.728 19.3349 122.415C20.1277 123.207 20.9199 124 21.7119 124.792C22.3954 125.477 23.0792 126.161 23.7632 126.844C24.1703 127.251 24.5772 127.658 24.9838 128.065C25.4372 128.519 25.8912 128.972 26.3453 129.425C26.4779 129.558 26.6106 129.691 26.7472 129.828C26.8723 129.953 26.9974 130.078 27.1263 130.206C27.2866 130.366 27.2866 130.366 27.4502 130.53C27.7715 130.834 28.0984 131.125 28.4332 131.415C29.061 131.961 29.6532 132.535 30.24 133.124C30.3487 133.233 30.4574 133.341 30.5694 133.453C30.9301 133.813 31.2902 134.174 31.6504 134.535C31.9102 134.795 32.17 135.055 32.4299 135.315C33.1329 136.018 33.8354 136.721 34.5378 137.425C35.1983 138.086 35.8592 138.747 36.52 139.408C37.8282 140.717 39.136 142.026 40.4437 143.335C41.7132 144.606 42.983 145.877 44.2529 147.147C44.3313 147.226 44.4097 147.304 44.4905 147.385C44.8838 147.778 45.2771 148.172 45.6704 148.565C48.9289 151.826 52.1869 155.086 55.4444 158.347C56.0331 158.102 56.4065 157.738 56.8548 157.289C56.9703 157.174 56.9703 157.174 57.0881 157.057C57.3471 156.799 57.6049 156.54 57.8627 156.281C58.0495 156.094 58.2364 155.907 58.4234 155.721C58.9378 155.207 59.4513 154.692 59.9646 154.177C60.5179 153.623 61.0722 153.069 61.6264 152.515C62.5867 151.555 63.5464 150.594 64.5057 149.633C65.8928 148.243 67.2807 146.855 68.6688 145.466C70.9208 143.213 73.1721 140.96 75.4229 138.706C77.6097 136.517 79.7968 134.327 81.9843 132.138C82.1191 132.004 82.2539 131.869 82.3928 131.73C83.069 131.053 83.7452 130.376 84.4214 129.7C90.0331 124.085 95.6437 118.469 101.254 112.852C101.008 112.264 100.645 111.89 100.196 111.442C100.12 111.365 100.043 111.288 99.9644 111.208C99.7066 110.949 99.4478 110.692 99.1889 110.434C99.0024 110.247 98.816 110.06 98.6296 109.873C98.1165 109.359 97.6024 108.845 97.0881 108.332C96.5341 107.778 95.9809 107.224 95.4276 106.67C94.3433 105.584 93.2581 104.499 92.1726 103.415C91.2909 102.534 90.4094 101.653 89.5282 100.771C89.403 100.646 89.2777 100.52 89.1486 100.391C88.8942 100.137 88.6398 99.8822 88.3853 99.6276C85.998 97.2394 83.6096 94.8521 81.221 92.4651C79.1693 90.4149 77.1185 88.3638 75.0683 86.3121C72.6895 83.9317 70.3103 81.5518 67.9303 79.1727C67.6768 78.9193 67.4232 78.6659 67.1697 78.4125C67.045 78.2878 66.9202 78.1631 66.7917 78.0346C65.9106 77.1537 65.0298 76.2725 64.1492 75.3912C63.077 74.3181 62.0042 73.2455 60.9307 72.1737C60.3825 71.6263 59.8346 71.0787 59.2873 70.5304C58.7871 70.0293 58.2862 69.5289 57.7847 69.0291C57.6027 68.8474 57.4209 68.6654 57.2394 68.4831C56.9941 68.237 56.748 67.9918 56.5015 67.7468C56.3646 67.6099 56.2276 67.473 56.0865 67.3319C55.4551 66.7762 55.2334 67.2146 54.7182 67.7292Z" fill="#F9F4F1"/>
<path d="M491.572 198.193C492.556 198.193 493.539 198.193 494.553 198.193C494.553 205.131 494.553 212.068 494.553 219.215C493.569 219.215 492.586 219.215 491.572 219.215C491.572 212.278 491.572 205.341 491.572 198.193Z" fill="#FFF9DB"/>
<path d="M266.762 198.193C267.746 198.193 268.73 198.193 269.743 198.193C269.743 205.131 269.743 212.068 269.743 219.215C268.759 219.215 267.776 219.215 266.762 219.215C266.762 212.278 266.762 205.341 266.762 198.193Z" fill="#FFF9DB"/>
<path d="M155.377 57.9434C155.429 57.9434 155.481 57.9434 155.534 57.9434C155.552 58.7729 155.335 59.1466 154.773 59.7533C154.644 59.8917 154.516 60.03 154.384 60.1726C153.658 60.9316 152.92 61.6773 152.178 62.419C152.001 62.5963 151.824 62.7737 151.647 62.9511C151.164 63.4344 150.681 63.9172 150.198 64.4C149.676 64.9222 149.154 65.4448 148.633 65.9674C147.612 66.9891 146.591 68.0104 145.57 69.0315C144.741 69.861 143.912 70.6905 143.083 71.5201C140.732 73.8726 138.38 76.2247 136.028 78.5763C135.902 78.7029 135.775 78.8295 135.645 78.9599C135.518 79.0866 135.391 79.2133 135.261 79.3439C133.202 81.4026 131.144 83.462 129.087 85.5217C126.974 87.6369 124.86 89.7516 122.746 91.8656C121.559 93.0524 120.372 94.2395 119.186 95.4272C118.178 96.4371 117.169 97.4464 116.159 98.4551C115.644 98.9701 115.128 99.4853 114.614 100.001C114.144 100.473 113.673 100.943 113.201 101.414C113.03 101.584 112.859 101.756 112.689 101.927C112.458 102.159 112.227 102.389 111.995 102.62C111.802 102.813 111.802 102.813 111.605 103.01C111.294 103.282 111.294 103.282 110.98 103.282C111.222 102.705 111.571 102.339 112.012 101.899C112.086 101.825 112.16 101.751 112.236 101.675C112.485 101.426 112.734 101.178 112.984 100.93C113.164 100.751 113.344 100.571 113.524 100.392C114.019 99.8971 114.514 99.4037 115.01 98.9104C115.545 98.3785 116.079 97.8457 116.612 97.313C117.538 96.3897 118.463 95.467 119.389 94.5446C120.729 93.2101 122.068 91.8744 123.406 90.5384C125.579 88.3697 127.752 86.2015 129.925 84.0339C130.055 83.9041 130.185 83.7743 130.319 83.6406C132.166 81.7987 134.013 79.9573 135.861 78.1161C135.991 77.9865 136.121 77.8568 136.255 77.7233C136.385 77.5938 136.515 77.4643 136.649 77.3309C138.814 75.1726 140.978 73.0131 143.142 70.8526C144.477 69.5196 145.812 68.1876 147.15 66.8569C148.066 65.9451 148.981 65.0322 149.895 64.1184C150.422 63.591 150.951 63.0641 151.48 62.5385C151.965 62.0575 152.448 61.575 152.93 61.0913C153.105 60.9166 153.28 60.7424 153.456 60.5687C153.695 60.3326 153.932 60.0946 154.168 59.856C154.301 59.7243 154.433 59.5926 154.569 59.4568C154.967 58.9677 155.154 58.5304 155.377 57.9434Z" fill="#F3E7E1"/>
<path d="M111.137 121.951C112.147 122.784 113.066 123.701 113.99 124.626C114.167 124.803 114.345 124.98 114.522 125.157C115.007 125.641 115.492 126.126 115.977 126.611C116.5 127.135 117.024 127.658 117.548 128.181C118.573 129.205 119.598 130.229 120.623 131.254C121.456 132.087 122.289 132.919 123.122 133.752C125.483 136.112 127.844 138.472 130.205 140.833C130.332 140.96 130.459 141.088 130.59 141.219C130.718 141.346 130.845 141.473 130.976 141.605C133.042 143.671 135.109 145.736 137.176 147.801C139.299 149.921 141.42 152.042 143.542 154.163C144.733 155.354 145.924 156.545 147.116 157.735C148.13 158.748 149.144 159.761 150.156 160.775C150.673 161.292 151.191 161.81 151.708 162.326C152.182 162.799 152.655 163.272 153.128 163.746C153.299 163.917 153.471 164.089 153.642 164.26C153.876 164.492 154.108 164.725 154.34 164.958C154.534 165.152 154.534 165.152 154.732 165.35C155.065 165.722 155.322 166.052 155.534 166.505C155.485 166.868 155.485 166.868 155.377 167.133C155.284 166.963 155.19 166.793 155.094 166.618C154.486 165.648 153.657 164.88 152.849 164.08C152.669 163.9 152.489 163.72 152.309 163.54C151.816 163.047 151.322 162.556 150.828 162.065C150.295 161.535 149.762 161.003 149.23 160.471C148.308 159.55 147.385 158.631 146.462 157.712C145.127 156.382 143.793 155.052 142.46 153.72C140.297 151.56 138.132 149.401 135.967 147.243C135.773 147.049 135.773 147.049 135.575 146.851C134.655 145.934 133.736 145.018 132.816 144.101C131.764 143.052 130.712 142.003 129.66 140.955C129.531 140.826 129.401 140.696 129.268 140.563C127.11 138.412 124.953 136.259 122.796 134.106C121.466 132.778 120.134 131.45 118.802 130.123C117.89 129.215 116.979 128.307 116.068 127.397C115.542 126.872 115.016 126.347 114.489 125.823C114.007 125.345 113.526 124.865 113.046 124.384C112.871 124.21 112.697 124.036 112.521 123.862C112.284 123.627 112.049 123.391 111.814 123.155C111.682 123.024 111.55 122.893 111.415 122.757C111.137 122.422 111.137 122.422 111.137 121.951Z" fill="#F3E8E1"/>
<path d="M55.7582 66.7285C55.7582 66.8321 55.7582 66.9356 55.7582 67.0423C55.5462 67.2513 55.5462 67.2513 55.2418 67.5011C54.3575 68.254 53.5457 69.0767 52.7263 69.8984C52.5486 70.0761 52.3709 70.2537 52.1931 70.4312C51.7073 70.9167 51.222 71.4027 50.7367 71.8887C50.2123 72.4138 49.6875 72.9383 49.1628 73.4629C48.2546 74.3711 47.3466 75.2795 46.4389 76.1882C45.1264 77.5019 43.8135 78.8152 42.5005 80.1284C40.3701 82.2591 38.2401 84.3902 36.1103 86.5215C34.0417 88.5915 31.9731 90.6613 29.9041 92.7309C29.7766 92.8585 29.649 92.9861 29.5175 93.1177C28.8773 93.758 28.2372 94.3984 27.597 95.0387C22.2891 100.348 16.9818 105.658 11.6748 110.969C11.5713 110.865 11.4678 110.762 11.3611 110.655C16.9477 105.058 22.5355 99.4616 28.125 93.8671C28.7842 93.2073 29.4434 92.5474 30.1027 91.8876C30.2339 91.7562 30.3652 91.6249 30.5004 91.4895C32.6281 89.3598 34.7549 87.2292 36.8815 85.0983C39.062 82.9134 41.2434 80.7294 43.4256 78.5462C44.7732 77.198 46.12 75.8491 47.466 74.4993C48.3879 73.575 49.3106 72.6515 50.234 71.7287C50.7675 71.1955 51.3006 70.6619 51.8327 70.1273C52.3191 69.6386 52.8066 69.151 53.295 68.6643C53.4721 68.4873 53.6488 68.31 53.8252 68.1322C54.0636 67.8919 54.3034 67.653 54.5437 67.4145C54.7436 67.2144 54.7436 67.2144 54.9475 67.0102C55.2876 66.7285 55.2876 66.7285 55.7582 66.7285Z" fill="#F0E0D7"/>
<path d="M11.3612 110.812C11.4129 110.916 11.4647 111.02 11.518 111.126C11.4695 111.233 11.421 111.34 11.371 111.45C11.0741 112.271 11.1236 113.027 11.3513 113.862C12.0393 115.264 13.488 116.414 14.5809 117.504C14.7229 117.646 14.865 117.789 15.0113 117.935C15.396 118.321 15.7812 118.705 16.1665 119.09C16.5723 119.496 16.9777 119.902 17.3833 120.307C18.0635 120.988 18.7441 121.668 19.4249 122.348C20.2091 123.131 20.9928 123.915 21.7762 124.7C22.4524 125.377 23.1288 126.053 23.8056 126.729C24.2082 127.132 24.6108 127.534 25.013 127.937C25.4615 128.386 25.9106 128.835 26.3598 129.283C26.5566 129.48 26.5566 129.48 26.7573 129.681C26.9429 129.866 26.9429 129.866 27.1323 130.055C27.2381 130.161 27.3438 130.266 27.4528 130.375C27.7732 130.679 28.0993 130.969 28.4331 131.257C29.0604 131.803 29.652 132.377 30.238 132.966C30.3465 133.075 30.455 133.183 30.5667 133.295C30.9267 133.655 31.2861 134.015 31.6455 134.376C31.9048 134.636 32.1642 134.895 32.4235 135.155C32.9802 135.712 33.5366 136.269 34.0927 136.827C34.8972 137.633 35.7021 138.439 36.5071 139.245C37.8139 140.553 39.1203 141.861 40.4265 143.169C40.5436 143.286 40.5436 143.286 40.663 143.406C41.2171 143.961 41.7713 144.516 42.3254 145.071C42.9601 145.707 43.5947 146.343 44.2294 146.978C44.3076 147.057 44.3858 147.135 44.4664 147.216C45.7691 148.521 47.0722 149.825 48.3755 151.13C49.2505 152.006 50.1253 152.882 50.9997 153.758C51.5421 154.302 52.0849 154.845 52.6277 155.388C52.8802 155.641 53.1325 155.894 53.3847 156.147C53.7277 156.491 54.0711 156.835 54.4147 157.178C54.5155 157.28 54.6162 157.381 54.7201 157.485C55.1938 157.976 55.1938 157.976 55.7583 158.347C55.7583 158.451 55.7583 158.554 55.7583 158.661C55.1165 158.577 54.8198 158.252 54.3713 157.804C54.2968 157.73 54.2224 157.656 54.1456 157.58C53.8949 157.331 53.6459 157.081 53.3968 156.83C53.2162 156.65 53.0354 156.47 52.8546 156.29C52.3568 155.794 51.8605 155.297 51.3644 154.799C50.8296 154.263 50.2934 153.729 49.7574 153.194C48.7071 152.146 47.658 151.096 46.6094 150.046C45.7573 149.193 44.9046 148.34 44.0517 147.488C43.9304 147.367 43.8091 147.246 43.6842 147.121C43.4379 146.875 43.1916 146.628 42.9453 146.382C40.6336 144.072 38.3234 141.76 36.0137 139.448C34.0311 137.463 32.0473 135.48 30.0626 133.497C27.7593 131.197 25.4567 128.895 23.1554 126.592C22.91 126.347 22.6647 126.101 22.4193 125.856C22.2985 125.735 22.1778 125.614 22.0534 125.49C21.2019 124.638 20.3499 123.786 19.4977 122.935C18.4591 121.898 17.4213 120.86 16.3846 119.821C15.8555 119.29 15.326 118.76 14.7955 118.231C14.31 117.747 13.8256 117.262 13.342 116.776C13.1667 116.6 12.9911 116.425 12.815 116.25C12.5759 116.012 12.3382 115.773 12.1009 115.533C11.9684 115.401 11.836 115.268 11.6995 115.132C11.036 114.353 10.8251 113.7 10.8317 112.685C10.8305 112.499 10.8293 112.313 10.828 112.121C10.8944 111.564 11.0384 111.264 11.3612 110.812Z" fill="#F5EAE5"/>
<path d="M493.925 189.882C494.38 190.227 494.614 190.476 494.867 190.98C494.955 191.702 494.924 192.26 494.631 192.931C494.121 193.454 493.707 193.605 492.984 193.647C492.348 193.552 492 193.427 491.503 193.019C491.149 192.339 491.154 191.733 491.258 190.98C491.788 189.77 492.725 189.705 493.925 189.882Z" fill="#FFF9DB"/>
<path d="M269.116 189.882C269.57 190.227 269.805 190.476 270.057 190.98C270.145 191.702 270.114 192.26 269.822 192.931C269.311 193.454 268.898 193.605 268.174 193.647C267.538 193.552 267.19 193.427 266.694 193.019C266.339 192.339 266.345 191.733 266.449 190.98C266.978 189.77 267.916 189.705 269.116 189.882Z" fill="#FFF9DB"/>
</svg>
