
<svg width="531" height="361" viewBox="0 0 531 361" fill="none" xmlns="http://www.w3.org/2000/svg">
<g clip-path="url(#clip0_129_18)">
<path d="M397.381 52.2319L484.953 1.96594L528.815 27.0801L528.69 127.976L441.105 178.241L397.256 153.14L397.381 52.2319Z" stroke="#203535" stroke-width="2.42562" stroke-miterlimit="10"/>
<path d="M484.764 102.874L528.626 127.976" stroke="#203535" stroke-width="2.42562" stroke-miterlimit="10"/>
<path d="M485.017 1.96594L484.891 102.874L397.319 153.14" stroke="#203535" stroke-width="2.42562" stroke-miterlimit="10"/>
<path d="M265.822 178.042L353.394 127.776L397.256 152.89L397.131 253.785L309.546 304.051L265.697 278.937L265.822 178.042Z" stroke="#203535" stroke-width="2.42562" stroke-miterlimit="10"/>
<path d="M353.206 228.671L397.068 253.785" stroke="#203535" stroke-width="2.42562" stroke-miterlimit="10"/>
<path d="M353.457 127.776L353.331 228.671L265.759 278.937" stroke="#203535" stroke-width="2.42562" stroke-miterlimit="10"/>
<path d="M397.381 152.927L484.953 102.661L528.815 127.775L528.69 228.671L441.105 278.937L397.256 253.823L397.381 152.927Z" stroke="#203535" stroke-width="2.42562" stroke-miterlimit="10"/>
<path d="M484.764 203.557L528.626 228.671" stroke="#203535" stroke-width="2.42562" stroke-miterlimit="10"/>
<path d="M485.017 102.661L484.891 203.557L397.319 253.823" stroke="#203535" stroke-width="2.42562" stroke-miterlimit="10"/>
<path d="M265.822 278.736L353.394 228.47L397.256 253.584L397.131 354.48L309.546 404.746L265.697 379.632L265.822 278.736Z" stroke="#203535" stroke-width="2.42562" stroke-miterlimit="10"/>
<path d="M353.206 329.366L397.068 354.481" stroke="#203535" stroke-width="2.42562" stroke-miterlimit="10"/>
<path d="M353.457 228.47L353.331 329.366L265.759 379.632" stroke="#203535" stroke-width="2.42562" stroke-miterlimit="10"/>
<path d="M397.381 253.622L484.953 203.356L528.815 228.47L528.69 329.366L441.105 379.632L397.256 354.518L397.381 253.622Z" stroke="#203535" stroke-width="2.42562" stroke-miterlimit="10"/>
<path d="M484.764 304.251L528.626 329.366" stroke="#203535" stroke-width="2.42562" stroke-miterlimit="10"/>
<path d="M485.017 203.356L484.891 304.252L397.319 354.518" stroke="#203535" stroke-width="2.42562" stroke-miterlimit="10"/>
<path d="M134.325 304.051L221.909 253.786L265.759 278.9L265.633 379.795L178.048 430.061L134.199 404.947L134.325 304.051Z" stroke="#203535" stroke-width="2.42562" stroke-miterlimit="10"/>
<path d="M221.708 354.681L265.57 379.795" stroke="#203535" stroke-width="2.42562" stroke-miterlimit="10"/>
<path d="M221.972 253.785L221.847 354.681L134.262 404.946" stroke="#203535" stroke-width="2.42562" stroke-miterlimit="10"/>
<path d="M265.822 379.431L353.394 329.165L397.256 354.279L397.131 455.174L309.546 505.441L265.697 480.327L265.822 379.431Z" stroke="#203535" stroke-width="2.42562" stroke-miterlimit="10"/>
<path d="M353.457 329.165L353.331 430.06L265.759 480.327" stroke="#203535" stroke-width="2.42562" stroke-miterlimit="10"/>
<path d="M397.381 354.317L484.953 304.051L528.815 329.165L528.69 430.06L441.105 480.327L397.256 455.213L397.381 354.317Z" stroke="#203535" stroke-width="2.42562" stroke-miterlimit="10"/>
<path d="M485.017 304.051L484.891 404.946L397.319 455.213" stroke="#203535" stroke-width="2.42562" stroke-miterlimit="10"/>
<path d="M134.325 404.746L221.909 354.48L265.759 379.594L265.633 480.49L178.048 530.755L134.199 505.641L134.325 404.746Z" stroke="#203535" stroke-width="2.42562" stroke-miterlimit="10"/>
<path d="M221.972 354.48L221.847 455.376L134.262 505.641" stroke="#203535" stroke-width="2.42562" stroke-miterlimit="10"/>
</g>
<defs>
<clipPath id="clip0_129_18">
<rect width="529.594" height="557.893" fill="white" transform="translate(0.552002 0.353516)"/>
</clipPath>
</defs>
</svg>
