<svg width="1920" height="800" viewBox="0 0 1920 800" fill="none" xmlns="http://www.w3.org/2000/svg">
<rect width="1920" height="800" fill="#F8F2EE"/>
<path d="M1306 309.609C1413.9 401.772 1474.68 213.711 1326.68 245.711" stroke="#832E04" stroke-dasharray="8 8"/>
<path d="M853.998 358.549C751.201 358.549 803.367 247.37 686.186 247.37" stroke="#832E04" stroke-dasharray="8 8"/>
<path d="M1005.3 352.965C1037.5 360.233 1091.21 332.056 1197.85 295.17" stroke="#832E04" stroke-dasharray="8 8"/>
<path d="M1592.95 316.91C1662.45 348.217 1742.99 335.866 1781.07 284.185" stroke="#832E04" stroke-dasharray="8 8"/>
<path d="M1345.28 243.203C1336.61 215.703 1505 243.5 1534.5 324" stroke="#832E04" stroke-dasharray="9 9"/>
<path d="M380.401 382.364C405.568 374.697 499.542 389.064 546.184 295.781" stroke="#832E04" stroke-dasharray="8 8"/>
<path d="M232.318 367.784C213.652 367.45 170.118 359.684 145.318 331.284" stroke="#832E04" stroke-dasharray="8 8"/>

<!-- Step 1: Content Audit -->
<circle cx="303.186" cy="367" r="78" fill="url(#paint1_linear_11_196)"/>
<!-- Icon: Document/Audit -->
<g transform="translate(303.186, 367)">
  <rect x="-25" y="-20" width="50" height="40" rx="4" fill="white" stroke="#832E04" stroke-width="3"/>
  <rect x="-20" y="-15" width="40" height="30" rx="2" fill="#832E04" fill-opacity="0.1"/>
  <line x1="-15" y1="-5" x2="15" y2="-5" stroke="#832E04" stroke-width="3"/>
  <line x1="-15" y1="0" x2="10" y2="0" stroke="#832E04" stroke-width="3"/>
  <line x1="-15" y1="5" x2="12" y2="5" stroke="#832E04" stroke-width="3"/>
  <line x1="-15" y1="10" x2="8" y2="10" stroke="#832E04" stroke-width="3"/>
  <circle cx="18" cy="-12" r="4" fill="#832E04"/>
  <path d="M16 -12 L18 -10 L20 -12" stroke="white" stroke-width="2" fill="none"/>
</g>
<circle cx="303.186" cy="490.5" r="21" fill="url(#paint9_radial_11_196)" stroke="#E15A17"/>
<text x="303.186" y="496.5" text-anchor="middle" fill="white" font-family="Arial, sans-serif" font-size="16" font-weight="bold">1</text>

<!-- Step 2: Trust Building -->
<circle cx="617.5" cy="270" r="78" fill="url(#paint10_linear_11_196)"/>
<!-- Icon: Shield/Trust -->
<g transform="translate(617.5, 270)">
  <path d="M0 -25 L-20 -12 L-20 12 L0 25 L20 12 L20 -12 Z" fill="white" stroke="#832E04" stroke-width="3"/>
  <path d="M0 -20 L-15 -8 L-15 8 L0 20 L15 8 L15 -8 Z" fill="#832E04" fill-opacity="0.1"/>
  <path d="M-8 -3 L-3 2 L8 -8 L12 -4 L8 0 L-3 8 Z" fill="#832E04"/>
  <circle cx="0" cy="0" r="4" fill="#832E04"/>
</g>
<circle cx="617.5" cy="393.5" r="21" fill="url(#paint21_radial_11_196)" stroke="#E15A17"/>
<text x="617.5" y="399.5" text-anchor="middle" fill="white" font-family="Arial, sans-serif" font-size="16" font-weight="bold">2</text>

<!-- Step 3: Proof Points -->
<circle cx="945.5" cy="367" r="78" fill="url(#paint22_linear_11_196)"/>
<!-- Icon: Chart/Proof Points -->
<g transform="translate(945.5, 367)">
  <rect x="-25" y="-20" width="50" height="40" rx="4" fill="white" stroke="#832E04" stroke-width="3"/>
  <rect x="-20" y="-15" width="40" height="30" rx="2" fill="#832E04" fill-opacity="0.1"/>
  
  <!-- Horizontal lines (top section) -->
  <line x1="-15" y1="-8" x2="15" y2="-8" stroke="#832E04" stroke-width="2"/>
  <line x1="-15" y1="-4" x2="15" y2="-4" stroke="#832E04" stroke-width="2"/>
  <line x1="-15" y1="0" x2="15" y2="0" stroke="#832E04" stroke-width="2"/>
  
  <!-- Bar chart (bottom section) -->
  <rect x="-12" y="5" width="6" height="8" fill="#832E04" fill-opacity="0.6"/>
  <rect x="-4" y="2" width="6" height="11" fill="#832E04" fill-opacity="0.6"/>
  <rect x="4" y="6" width="6" height="7" fill="#832E04" fill-opacity="0.6"/>
  
  <!-- ROI text -->
</g>
<circle cx="945.5" cy="490.5" r="21" fill="url(#paint29_radial_11_196)" stroke="#E15A17"/>
<text x="945.5" y="496.5" text-anchor="middle" fill="white" font-family="Arial, sans-serif" font-size="16" font-weight="bold">3</text>

<!-- Step 4: Thought Leadership -->
<circle cx="1273.5" cy="270" r="78" fill="url(#paint30_linear_11_196)"/>
<!-- Icon: Brain/Analytics/Thought Leadership -->
<g transform="translate(1273.5, 270)">
  <rect x="-25" y="-20" width="50" height="40" rx="4" fill="white" stroke="#832E04" stroke-width="3"/>
  <rect x="-20" y="-15" width="40" height="30" rx="2" fill="#832E04" fill-opacity="0.1"/>
  
  <!-- Brain/Network Icon -->
  <circle cx="-8" cy="-5" r="6" fill="#832E04" fill-opacity="0.3"/>
  <circle cx="8" cy="-5" r="6" fill="#832E04" fill-opacity="0.3"/>
  <circle cx="0" cy="5" r="8" fill="#832E04" fill-opacity="0.2"/>
  
  <!-- Connection Lines -->
  <line x1="-8" y1="-5" x2="0" y2="5" stroke="#832E04" stroke-width="2"/>
  <line x1="8" y1="-5" x2="0" y2="5" stroke="#832E04" stroke-width="2"/>
  <line x1="-8" y1="-5" x2="8" y2="-5" stroke="#832E04" stroke-width="2"/>
  
  <!-- Data Points -->
  <circle cx="-12" cy="-10" r="2" fill="#832E04"/>
  <circle cx="12" cy="-10" r="2" fill="#832E04"/>
  <circle cx="-15" cy="0" r="2" fill="#832E04"/>
  <circle cx="15" cy="0" r="2" fill="#832E04"/>
  <circle cx="0" cy="12" r="2" fill="#832E04"/>
  
  <!-- Thought Leadership Text -->
</g>
<circle cx="1273.5" cy="393.5" r="21" fill="url(#paint37_radial_11_196)" stroke="#E15A17"/>
<text x="1273.5" y="399.5" text-anchor="middle" fill="white" font-family="Arial, sans-serif" font-size="16" font-weight="bold">4</text>

<!-- Step 5: Content Distribution -->
<circle cx="1601.5" cy="367" r="78" fill="url(#paint38_linear_11_196)"/>
<!-- Icon: Broadcast/Distribution -->
<g transform="translate(1601.5, 367)">
  <circle cx="0" cy="0" r="25" fill="white" stroke="#832E04" stroke-width="3"/>
  <path d="M-18 -12 L-30 -24 L-24 -30 L-12 -18 Z" fill="#832E04" fill-opacity="0.6"/>
  <path d="M18 -12 L30 -24 L24 -30 L12 -18 Z" fill="#832E04" fill-opacity="0.6"/>
  <path d="M-18 12 L-30 24 L-24 30 L-12 18 Z" fill="#832E04" fill-opacity="0.6"/>
  <path d="M18 12 L30 24 L24 30 L12 18 Z" fill="#832E04" fill-opacity="0.6"/>
  <circle cx="0" cy="0" r="10" fill="#832E04"/>
  <circle cx="0" cy="0" r="4" fill="white"/>
  <path d="M-10 0 Q-15 0 -15 -5 Q-15 -10 -10 -10" stroke="white" stroke-width="3" fill="none"/>
  <path d="M10 0 Q15 0 15 -5 Q15 -10 10 -10" stroke="white" stroke-width="3" fill="none"/>
</g>
<circle cx="1601.5" cy="490.5" r="21" fill="url(#paint45_radial_11_196)" stroke="#E15A17"/>
<text x="1601.5" y="496.5" text-anchor="middle" fill="white" font-family="Arial, sans-serif" font-size="16" font-weight="bold">5</text>

<!-- Step Titles and Descriptions -->
<!-- Step 1 -->
<text x="303.186" y="540" text-anchor="middle" fill="#832E04" font-family="Arial, sans-serif" font-size="18" font-weight="bold">Content Audit</text>
<text x="303.186" y="560" text-anchor="middle" fill="#832E04" font-family="Arial, sans-serif" font-size="14">Analyze existing content and identify gaps in cybersecurity messaging.</text>

<!-- Step 2 -->
<text x="617.5" y="440" text-anchor="middle" fill="#832E04" font-family="Arial, sans-serif" font-size="18" font-weight="bold">Trust Building</text>
<text x="617.5" y="460" text-anchor="middle" fill="#832E04" font-family="Arial, sans-serif" font-size="14">Educational content that demonstrates expertise without selling.</text>

<!-- Step 3 -->
<text x="945.5" y="540" text-anchor="middle" fill="#832E04" font-family="Arial, sans-serif" font-size="18" font-weight="bold">Proof Points</text>
<text x="945.5" y="560" text-anchor="middle" fill="#832E04" font-family="Arial, sans-serif" font-size="14">Case studies, ROI data, and customer success stories that build credibility.</text>

<!-- Step 4 -->
<text x="1273.5" y="440" text-anchor="middle" fill="#832E04" font-family="Arial, sans-serif" font-size="18" font-weight="bold">Thought Leadership</text>
<text x="1273.5" y="460" text-anchor="middle" fill="#832E04" font-family="Arial, sans-serif" font-size="14">Industry insights and perspectives that position you as a trusted advisor.</text>

<!-- Step 5 -->
<text x="1601.5" y="540" text-anchor="middle" fill="#832E04" font-family="Arial, sans-serif" font-size="18" font-weight="bold">Content Distribution</text>
<text x="1601.5" y="560" text-anchor="middle" fill="#832E04" font-family="Arial, sans-serif" font-size="14">Multi-format content strategy optimized for different stages of the buyer journey.</text>

<defs>
<linearGradient id="paint1_linear_11_196" x1="225.186" y1="290" x2="381.186" y2="444" gradientUnits="userSpaceOnUse">
<stop stop-color="#832E04"/>
<stop offset="1" stop-color="#ECD947"/>
</linearGradient>
<linearGradient id="paint9_radial_11_196" cx="0" cy="0" r="1" gradientUnits="userSpaceOnUse" gradientTransform="translate(303 490) rotate(90) scale(21.5)">
<stop stop-color="#B23C01"/>
<stop offset="1" stop-color="#832E04"/>
</linearGradient>
<linearGradient id="paint10_linear_11_196" x1="539.5" y1="192" x2="695.5" y2="348" gradientUnits="userSpaceOnUse">
<stop stop-color="#832E04"/>
<stop offset="1" stop-color="#ECD947"/>
</linearGradient>
<linearGradient id="paint21_radial_11_196" cx="0" cy="0" r="1" gradientUnits="userSpaceOnUse" gradientTransform="translate(617 393) rotate(90) scale(21.5)">
<stop stop-color="#B23C01"/>
<stop offset="1" stop-color="#832E04"/>
</linearGradient>
<linearGradient id="paint22_linear_11_196" x1="867.5" y1="289" x2="1023.5" y2="445" gradientUnits="userSpaceOnUse">
<stop stop-color="#832E04"/>
<stop offset="1" stop-color="#ECD947"/>
</linearGradient>
<linearGradient id="paint29_radial_11_196" cx="0" cy="0" r="1" gradientUnits="userSpaceOnUse" gradientTransform="translate(945 490) rotate(90) scale(21.5)">
<stop stop-color="#B23C01"/>
<stop offset="1" stop-color="#832E04"/>
</linearGradient>
<linearGradient id="paint30_linear_11_196" x1="1195.5" y1="192" x2="1351.5" y2="348" gradientUnits="userSpaceOnUse">
<stop stop-color="#832E04"/>
<stop offset="1" stop-color="#ECD947"/>
</linearGradient>
<linearGradient id="paint37_radial_11_196" cx="0" cy="0" r="1" gradientUnits="userSpaceOnUse" gradientTransform="translate(1273 393) rotate(90) scale(21.5)">
<stop stop-color="#B23C01"/>
<stop offset="1" stop-color="#832E04"/>
</linearGradient>
<linearGradient id="paint38_linear_11_196" x1="1523.5" y1="289" x2="1679.5" y2="445" gradientUnits="userSpaceOnUse">
<stop stop-color="#832E04"/>
<stop offset="1" stop-color="#ECD947"/>
</linearGradient>
<linearGradient id="paint45_radial_11_196" cx="0" cy="0" r="1" gradientUnits="userSpaceOnUse" gradientTransform="translate(1601 490) rotate(90) scale(21.5)">
<stop stop-color="#B23C01"/>
<stop offset="1" stop-color="#832E04"/>
</linearGradient>
</defs>
</svg>
