<svg width="1920" height="800" viewBox="0 0 1920 800" fill="none" xmlns="http://www.w3.org/2000/svg">
<rect width="1920" height="800" fill="#F8F2EE"/>
<path d="M1306 309.609C1413.9 401.772 1474.68 213.711 1326.68 245.711" stroke="#832E04" stroke-dasharray="8 8"/>
<path d="M853.998 358.549C751.201 358.549 803.367 247.37 686.186 247.37" stroke="#832E04" stroke-dasharray="8 8"/>
<path d="M1005.3 352.965C1037.5 360.233 1091.21 332.056 1197.85 295.17" stroke="#832E04" stroke-dasharray="8 8"/>
<path d="M1592.95 316.91C1662.45 348.217 1742.99 335.866 1781.07 284.185" stroke="#832E04" stroke-dasharray="8 8"/>
<path d="M1345.28 243.203C1336.61 215.703 1505 243.5 1534.5 324" stroke="#832E04" stroke-dasharray="9 9"/>
<path d="M380.401 382.364C405.568 374.697 499.542 389.064 546.184 295.781" stroke="#832E04" stroke-dasharray="8 8"/>
<path d="M232.318 367.784C213.652 367.45 170.118 359.684 145.318 331.284" stroke="#832E04" stroke-dasharray="8 8"/>

<!-- Step 1: Stakeholder Analysis -->
<circle cx="303.186" cy="367" r="78" fill="url(#paint1_linear_11_196)"/>
<!-- Icon: People/Stakeholders -->
<g transform="translate(303.186, 367)">
  <rect x="-25" y="-20" width="50" height="40" rx="4" fill="white" stroke="#832E04" stroke-width="3"/>
  <rect x="-20" y="-15" width="40" height="30" rx="2" fill="#832E04" fill-opacity="0.1"/>
  <circle cx="-8" cy="-5" r="5" fill="#832E04"/>
  <path d="M-12 2 Q-12 6 -8 6 Q-4 6 -4 2" fill="#832E04"/>
  <circle cx="8" cy="-5" r="5" fill="#832E04"/>
  <path d="M4 2 Q4 6 8 6 Q12 6 12 2" fill="#832E04"/>
  <circle cx="0" cy="-5" r="5" fill="#832E04"/>
  <path d="M-4 2 Q-4 6 0 6 Q4 6 4 2" fill="#832E04"/>
</g>
<circle cx="303.186" cy="490.5" r="21" fill="url(#paint9_radial_11_196)" stroke="#E15A17"/>
<text x="303.186" y="496.5" text-anchor="middle" fill="white" font-family="Arial, sans-serif" font-size="16" font-weight="bold">1</text>

<!-- Step 2: Journey Visualization -->
<circle cx="617.5" cy="270" r="78" fill="url(#paint10_linear_11_196)"/>
<!-- Icon: Map/Journey -->
<g transform="translate(617.5, 270)">
  <rect x="-25" y="-20" width="50" height="40" rx="4" fill="white" stroke="#832E04" stroke-width="3"/>
  <rect x="-20" y="-15" width="40" height="30" rx="2" fill="#832E04" fill-opacity="0.1"/>
  <path d="M-15 -6 L-8 -3 L0 -5 L8 -2 L15 -4" stroke="#832E04" stroke-width="3" fill="none"/>
  <circle cx="-15" cy="-6" r="2" fill="#832E04"/>
  <circle cx="-8" cy="-3" r="2" fill="#832E04"/>
  <circle cx="0" cy="-5" r="2" fill="#832E04"/>
  <circle cx="8" cy="-2" r="2" fill="#832E04"/>
  <circle cx="15" cy="-4" r="2" fill="#832E04"/>
</g>
<circle cx="617.5" cy="393.5" r="21" fill="url(#paint21_radial_11_196)" stroke="#E15A17"/>
<text x="617.5" y="399.5" text-anchor="middle" fill="white" font-family="Arial, sans-serif" font-size="16" font-weight="bold">2</text>

<!-- Step 3: Touchpoint Mapping -->
<circle cx="945.5" cy="367" r="78" fill="url(#paint22_linear_11_196)"/>
<!-- Icon: Touchpoints/Connections -->
<g transform="translate(945.5, 367)">
  <rect x="-25" y="-20" width="50" height="40" rx="4" fill="white" stroke="#832E04" stroke-width="3"/>
  <rect x="-20" y="-15" width="40" height="30" rx="2" fill="#832E04" fill-opacity="0.1"/>
  <circle cx="-12" cy="-8" r="4" fill="#832E04"/>
  <circle cx="12" cy="-8" r="4" fill="#832E04"/>
  <circle cx="-12" cy="8" r="4" fill="#832E04"/>
  <circle cx="12" cy="8" r="4" fill="#832E04"/>
  <circle cx="0" cy="0" r="5" fill="#832E04"/>
  <line x1="-8" y1="-4" x2="-5" y2="-2" stroke="white" stroke-width="2"/>
  <line x1="8" y1="-4" x2="5" y2="-2" stroke="white" stroke-width="2"/>
  <line x1="-8" y1="4" x2="-5" y2="2" stroke="white" stroke-width="2"/>
  <line x1="8" y1="4" x2="5" y2="2" stroke="white" stroke-width="2"/>
</g>
<circle cx="945.5" cy="490.5" r="21" fill="url(#paint29_radial_11_196)" stroke="#E15A17"/>
<text x="945.5" y="496.5" text-anchor="middle" fill="white" font-family="Arial, sans-serif" font-size="16" font-weight="bold">3</text>

<!-- Step 4: Engagement Strategy -->
<circle cx="1273.5" cy="270" r="78" fill="url(#paint30_linear_11_196)"/>
<!-- Icon: Strategy/Engagement -->
<g transform="translate(1273.5, 270)">
  <rect x="-25" y="-20" width="50" height="40" rx="4" fill="white" stroke="#832E04" stroke-width="3"/>
  <rect x="-20" y="-15" width="40" height="30" rx="2" fill="#832E04" fill-opacity="0.1"/>
  <circle cx="-8" cy="-3" r="2" fill="#832E04"/>
  <circle cx="8" cy="-3" r="2" fill="#832E04"/>
  <circle cx="-8" cy="3" r="2" fill="#832E04"/>
  <circle cx="8" cy="3" r="2" fill="#832E04"/>
  <line x1="-6" y1="-3" x2="6" y2="-3" stroke="#832E04" stroke-width="2"/>
  <line x1="-6" y1="3" x2="6" y2="3" stroke="#832E04" stroke-width="2"/>
  <line x1="-8" y1="-1" x2="-8" y2="1" stroke="#832E04" stroke-width="2"/>
  <line x1="8" y1="-1" x2="8" y2="1" stroke="#832E04" stroke-width="2"/>
</g>
<circle cx="1273.5" cy="393.5" r="21" fill="url(#paint37_radial_11_196)" stroke="#E15A17"/>
<text x="1273.5" y="399.5" text-anchor="middle" fill="white" font-family="Arial, sans-serif" font-size="16" font-weight="bold">4</text>

<!-- Step 5: Optimization -->
<circle cx="1601.5" cy="367" r="78" fill="url(#paint38_linear_11_196)"/>
<!-- Icon: Gear/Optimization -->
<g transform="translate(1601.5, 367)">
  <rect x="-25" y="-20" width="50" height="40" rx="4" fill="white" stroke="#832E04" stroke-width="3"/>
  <rect x="-20" y="-15" width="40" height="30" rx="2" fill="#832E04" fill-opacity="0.1"/>
  <circle cx="0" cy="0" r="12" fill="#832E04"/>
  <circle cx="0" cy="0" r="5" fill="white"/>
  <rect x="-1" y="-15" width="2" height="5" fill="white"/>
  <rect x="-1" y="10" width="2" height="5" fill="white"/>
  <rect x="-15" y="-1" width="5" height="2" fill="white"/>
  <rect x="10" y="-1" width="5" height="2" fill="white"/>
  <rect x="-10" y="-10" width="2" height="4" fill="white"/>
  <rect x="8" y="-10" width="2" height="4" fill="white"/>
  <rect x="-10" y="6" width="2" height="4" fill="white"/>
  <rect x="8" y="6" width="2" height="4" fill="white"/>
</g>
<circle cx="1601.5" cy="490.5" r="21" fill="url(#paint45_radial_11_196)" stroke="#E15A17"/>
<text x="1601.5" y="496.5" text-anchor="middle" fill="white" font-family="Arial, sans-serif" font-size="16" font-weight="bold">5</text>

<!-- Step Titles and Descriptions -->
<!-- Step 1 -->
<text x="303.186" y="540" text-anchor="middle" fill="#832E04" font-family="Arial, sans-serif" font-size="18" font-weight="bold">Stakeholder Analysis</text>
<text x="303.186" y="560" text-anchor="middle" fill="#832E04" font-family="Arial, sans-serif" font-size="14">Identify all decision-makers, influencers, and gatekeepers in the buying process.</text>

<!-- Step 2 -->
<text x="617.5" y="440" text-anchor="middle" fill="#832E04" font-family="Arial, sans-serif" font-size="18" font-weight="bold">Journey Visualization</text>
<text x="617.5" y="460" text-anchor="middle" fill="#832E04" font-family="Arial, sans-serif" font-size="14">Map the complete buyer journey from awareness to decision with key touchpoints.</text>

<!-- Step 3 -->
<text x="945.5" y="540" text-anchor="middle" fill="#832E04" font-family="Arial, sans-serif" font-size="18" font-weight="bold">Touchpoint Mapping</text>
<text x="945.5" y="560" text-anchor="middle" fill="#832E04" font-family="Arial, sans-serif" font-size="14">Multi-stakeholder journey mapping for complex cybersecurity deals.</text>

<!-- Step 4 -->
<text x="1273.5" y="440" text-anchor="middle" fill="#832E04" font-family="Arial, sans-serif" font-size="18" font-weight="bold">Engagement Strategy</text>
<text x="1273.5" y="460" text-anchor="middle" fill="#832E04" font-family="Arial, sans-serif" font-size="14">Develop targeted content and outreach for each stakeholder at each stage.</text>

<!-- Step 5 -->
<text x="1601.5" y="540" text-anchor="middle" fill="#832E04" font-family="Arial, sans-serif" font-size="18" font-weight="bold">Optimization</text>
<text x="1601.5" y="560" text-anchor="middle" fill="#832E04" font-family="Arial, sans-serif" font-size="14">Content and messaging optimization for each touchpoint.</text>

<defs>
<linearGradient id="paint1_linear_11_196" x1="225.186" y1="290" x2="381.186" y2="444" gradientUnits="userSpaceOnUse">
<stop stop-color="#832E04"/>
<stop offset="1" stop-color="#ECD947"/>
</linearGradient>
<linearGradient id="paint9_radial_11_196" cx="0" cy="0" r="1" gradientUnits="userSpaceOnUse" gradientTransform="translate(303 490) rotate(90) scale(21.5)">
<stop stop-color="#B23C01"/>
<stop offset="1" stop-color="#832E04"/>
</linearGradient>
<linearGradient id="paint10_linear_11_196" x1="539.5" y1="192" x2="695.5" y2="348" gradientUnits="userSpaceOnUse">
<stop stop-color="#832E04"/>
<stop offset="1" stop-color="#ECD947"/>
</linearGradient>
<linearGradient id="paint21_radial_11_196" cx="0" cy="0" r="1" gradientUnits="userSpaceOnUse" gradientTransform="translate(617 393) rotate(90) scale(21.5)">
<stop stop-color="#B23C01"/>
<stop offset="1" stop-color="#832E04"/>
</linearGradient>
<linearGradient id="paint22_linear_11_196" x1="867.5" y1="289" x2="1023.5" y2="445" gradientUnits="userSpaceOnUse">
<stop stop-color="#832E04"/>
<stop offset="1" stop-color="#ECD947"/>
</linearGradient>
<linearGradient id="paint29_radial_11_196" cx="0" cy="0" r="1" gradientUnits="userSpaceOnUse" gradientTransform="translate(945 490) rotate(90) scale(21.5)">
<stop stop-color="#B23C01"/>
<stop offset="1" stop-color="#832E04"/>
</linearGradient>
<linearGradient id="paint30_linear_11_196" x1="1195.5" y1="192" x2="1351.5" y2="348" gradientUnits="userSpaceOnUse">
<stop stop-color="#832E04"/>
<stop offset="1" stop-color="#ECD947"/>
</linearGradient>
<linearGradient id="paint37_radial_11_196" cx="0" cy="0" r="1" gradientUnits="userSpaceOnUse" gradientTransform="translate(1273 393) rotate(90) scale(21.5)">
<stop stop-color="#B23C01"/>
<stop offset="1" stop-color="#832E04"/>
</linearGradient>
<linearGradient id="paint38_linear_11_196" x1="1523.5" y1="289" x2="1679.5" y2="445" gradientUnits="userSpaceOnUse">
<stop stop-color="#832E04"/>
<stop offset="1" stop-color="#ECD947"/>
</linearGradient>
<linearGradient id="paint45_radial_11_196" cx="0" cy="0" r="1" gradientUnits="userSpaceOnUse" gradientTransform="translate(1601 490) rotate(90) scale(21.5)">
<stop stop-color="#B23C01"/>
<stop offset="1" stop-color="#832E04"/>
</linearGradient>
</defs>
</svg>
